<svg width="69" height="79" viewBox="0 0 69 79" fill="none" xmlns="http://www.w3.org/2000/svg">
<path d="M25.4746 4.78906L25.9152 4.92558C27.8548 5.61346 29.6999 6.54331 31.4068 7.6931C35.8519 10.6357 39.9779 14.0338 43.7179 17.8324L43.6559 17.9689C39.8355 14.0904 35.6223 10.6196 31.0841 7.61243C29.3399 6.44007 27.4553 5.49152 25.4746 4.78906Z" fill="#57B5FF"/>
<path d="M54.1547 31.7349V31.7722V31.8156V31.859V31.8963V31.9397V31.9832V32.0266V32.07C53.8125 31.187 53.3973 30.3339 52.9137 29.5197C51.0521 26.3054 47.7881 22.1727 43.4941 17.8787L43.5562 17.7422C47.7571 21.9493 51.0024 25.9951 52.7833 29.1412C53.314 29.9648 53.7728 30.8326 54.1547 31.7349Z" fill="#57B5FF"/>
<path d="M24.1101 6.80923L23.955 6.38107C23.2724 4.51951 23.3779 3.27847 24.4266 2.82548C25.9096 2.20496 28.9936 3.40878 32.7788 5.82881C37.3198 8.83211 41.5334 12.3032 45.3506 16.1853L45.0651 16.4087C41.3264 12.6086 37.2002 9.21034 32.754 6.26938C29.0308 3.89899 26.0275 2.73241 24.5755 3.32811C23.5268 3.74386 23.44 4.9849 24.1101 6.80923Z" fill="#57B5FF"/>
<path d="M52.7848 33.7609H52.7413H52.6979H52.6544H52.611H52.5676H52.5241H52.4807H52.4373C53.2898 34.1118 54.2346 34.1707 55.1241 33.9284C56.5761 33.3079 56.1852 31.0926 54.3857 27.9466C52.5862 24.8005 49.3595 20.7547 45.1523 16.5476L45.4378 16.3242C49.6449 20.5003 52.9275 24.6144 54.7704 27.8225C56.6134 31.0306 57.0167 33.3265 55.5337 33.9346C54.6228 34.1765 53.6579 34.1155 52.7848 33.7609Z" fill="#57B5FF"/>
<path d="M54.1733 34.8903L52.9322 36.1872C52.7951 36.3272 52.6302 36.4371 52.4482 36.5098C50.9962 37.1304 47.9743 35.939 44.2697 33.5686C39.8278 30.6269 35.7058 27.2286 31.971 23.4292C27.7639 19.2221 24.5248 15.1763 22.7377 12.0303C21.1739 9.29997 20.6713 7.25225 21.4966 6.37111L22.7377 5.07422C21.8999 5.96156 22.4026 8.00929 23.9787 10.7334C25.7844 13.8794 29.0049 17.9314 33.2121 22.1386C36.9479 25.9405 41.0697 29.3428 45.5108 32.2903C49.2339 34.6545 52.2372 35.8211 53.6893 35.2316C53.8728 35.1531 54.0377 35.0368 54.1733 34.8903Z" fill="#57B5FF"/>
<path d="M56.7491 32.1763L55.5081 33.467C55.3737 33.6104 55.208 33.7208 55.024 33.7897C53.572 34.4102 50.5563 33.2188 46.8456 30.8546C42.4065 27.9091 38.2849 24.5111 34.5468 20.7153C30.3521 16.5082 27.1254 12.4314 25.3197 9.32875C23.756 6.60466 23.2533 4.55694 24.0786 3.66959L25.3197 2.37891C24.4758 3.26005 24.9784 5.30777 26.5607 8.03806C28.3478 11.1903 31.5932 15.2113 35.7755 19.4184C39.5142 23.2185 43.6404 26.6168 48.0866 29.5577C51.8097 31.9281 54.8131 33.0947 56.2651 32.499C56.4471 32.4263 56.612 32.3164 56.7491 32.1763Z" fill="#57B5FF"/>
<path d="M46.2922 15.1229C50.4993 19.33 53.7384 23.3758 55.5193 26.5219C57.3002 29.6679 57.716 31.908 56.2639 32.5037C54.8119 33.0994 51.79 31.9328 48.0855 29.5624C43.6392 26.6214 39.513 23.2232 35.7743 19.4231C31.592 15.216 28.3467 11.195 26.541 8.02411C24.7352 4.85325 24.3505 2.63178 25.8025 2.04228C27.2546 1.45279 30.2703 2.61316 33.981 4.97735C38.4258 7.92263 42.5518 11.3228 46.2922 15.1229Z" fill="#57B5FF"/>
<path d="M56.0221 33.6052L54.328 35.3923C54.1901 35.5358 54.0229 35.6479 53.8378 35.7212C52.3548 36.3417 49.2708 35.1379 45.4856 32.7241C40.9472 29.7149 36.7339 26.242 32.9139 22.3614C28.6199 18.0674 25.3311 13.9347 23.4881 10.7204C21.8934 7.94047 21.3784 5.84931 22.2471 4.94335L23.9349 3.15625C23.0786 4.06221 23.5936 6.15337 25.176 8.93951C27.0375 12.1476 30.3077 16.2865 34.6017 20.5805C38.4223 24.4593 42.6379 27.9283 47.1796 30.9308C50.9648 33.3508 54.0488 34.5422 55.5319 33.9341C55.7161 33.8592 55.8829 33.7473 56.0221 33.6052Z" fill="#57B5FF"/>
<path d="M11.9121 60.6455L12.3589 60.4097C12.5353 60.3151 12.7177 60.2322 12.9049 60.1615C14.8037 59.4045 18.6944 58.7654 24.1178 58.4303C29.6334 58.1014 35.1638 58.1014 40.6795 58.4303C45.8857 58.7405 50.3658 59.3424 52.8913 60.1553L53.3009 60.3849C50.7195 59.5534 46.1463 58.9701 40.8284 58.6164C35.1969 58.2845 29.5507 58.2845 23.9192 58.6164C18.3841 58.9701 14.4128 59.5907 12.4644 60.3911C12.2755 60.465 12.091 60.55 11.9121 60.6455Z" fill="#57B5FF"/>
<path d="M54.1434 60.6713L54.584 60.9133C54.1765 60.7 53.7508 60.5234 53.3119 60.3858L52.9023 60.1562C53.3309 60.2897 53.7463 60.4621 54.1434 60.6713Z" fill="#57B5FF"/>
<path d="M12.3558 60.0961L11.9153 59.8603C10.6742 59.1839 10.9535 58.4951 12.4923 57.887C14.4222 57.1114 18.3935 56.4908 23.9348 56.1185C29.5662 55.7834 35.2125 55.7834 40.844 56.1185C46.1618 56.435 50.7351 57.0493 53.304 57.8808L52.8945 58.16C50.369 57.3472 45.864 56.7452 40.6826 56.435C35.167 56.1061 29.6366 56.1061 24.1209 56.435C18.6976 56.7763 14.8131 57.4092 12.9081 58.1662C11.4002 58.7619 11.1148 59.4383 12.3558 60.0961Z" fill="#57B5FF"/>
<path d="M54.5527 60.1252L54.3107 60.2493L54.1121 60.3548C55.4276 59.6598 55.1174 58.8842 52.8711 58.1581L53.2806 57.8789C55.6014 58.6235 55.9179 59.4116 54.5527 60.1252Z" fill="#57B5FF"/>
<path d="M54.8978 61.5129V63.3124C54.8978 63.6847 54.4386 64.0571 53.5699 64.3983C51.6711 65.1554 47.7804 65.7945 42.3571 66.1296C36.8413 66.4554 31.3111 66.4554 25.7954 66.1296C20.583 65.838 16.078 65.236 13.5959 64.4232C12.2059 63.9764 11.5544 63.5172 11.5606 63.0642V61.2461C11.5606 61.6991 12.1811 62.1645 13.5773 62.605C16.1028 63.4241 20.5768 64.0198 25.7891 64.3363C31.3049 64.6621 36.8351 64.6621 42.3509 64.3363C47.7742 64.0012 51.6587 63.3621 53.5637 62.605C54.4448 62.2575 54.8978 61.8914 54.8978 61.5129Z" fill="#57B5FF"/>
<path d="M54.9251 57.7331V59.5512C54.9251 59.9297 54.4722 60.2958 53.6034 60.6371C51.7046 61.3941 47.814 62.0333 42.3906 62.3746C36.8748 62.6973 31.3448 62.6973 25.8289 62.3746C20.6103 62.0333 16.1302 61.4562 13.5984 60.6123C12.2333 60.1717 11.5817 59.7063 11.5879 59.2533V57.4414C11.5941 57.8882 12.2457 58.3536 13.5984 58.8003C16.1364 59.5946 20.6165 60.2151 25.8227 60.5254C31.3385 60.8512 36.8686 60.8512 42.3844 60.5254C47.814 60.1841 51.6922 59.5512 53.6034 58.7941C54.4722 58.4467 54.9251 58.0805 54.9251 57.7331Z" fill="#57B5FF"/>
<path d="M52.9001 56.3414C55.4195 57.1605 55.5063 58.0354 53.6013 58.7924C51.6963 59.5495 47.8119 60.2134 42.3823 60.5237C36.8665 60.8495 31.3363 60.8495 25.8206 60.5237C20.6144 60.2134 16.1342 59.5929 13.5963 58.7987C11.0584 58.0044 11.0149 57.1108 12.9137 56.3476C14.8125 55.5843 18.7094 54.9576 24.1452 54.6287C29.661 54.306 35.191 54.306 40.7069 54.6287C45.9007 54.9266 50.3808 55.5285 52.9001 56.3414Z" fill="#57B5FF"/>
<path d="M55.3708 59.2677V61.7498C55.3708 62.1283 54.9054 62.5069 54.0243 62.8606C52.0821 63.63 48.1107 64.2816 42.5695 64.6228C36.9379 64.9548 31.2918 64.9548 25.6603 64.6228C20.3424 64.3002 15.7691 63.6921 13.2002 62.8544C11.773 62.4324 11.1152 61.9608 11.1152 61.5016V59.0195C11.1152 59.4787 11.773 59.9503 13.1754 60.4095C15.7505 61.241 20.3238 61.8553 25.6416 62.1718C31.2732 62.5007 36.9192 62.5007 42.5508 62.1718C48.0859 61.8243 52.0572 61.1727 53.9995 60.4033C54.9054 60.0248 55.3708 59.6525 55.3708 59.2677Z" fill="#57B5FF"/>
<path d="M54.0087 46.794L54.35 47.1229C52.8837 45.8538 51.2538 44.7874 49.5037 43.952L49.2617 43.6914C50.9736 44.5124 52.5696 45.5556 54.0087 46.794Z" fill="#57B5FF"/>
<path d="M15.1719 35.5365L15.6373 35.4497C17.0169 35.24 18.4164 35.1921 19.8072 35.307C24.8347 35.7348 29.8046 36.681 34.6376 38.1303C39.6796 39.5217 44.5771 41.3918 49.2633 43.715L49.5053 43.9756C44.7213 41.6046 39.7221 39.6951 34.5756 38.273C29.6481 36.8013 24.5832 35.8366 19.4597 35.3938C18.0298 35.2733 16.5906 35.3212 15.1719 35.5365Z" fill="#57B5FF"/>
<path d="M54.0399 48.1876L53.5745 48.2745C54.9396 48.0201 55.647 47.5236 55.6966 46.8411C55.7773 45.6435 53.8351 43.8688 49.8203 41.7962L50.2112 41.5977C54.3005 43.7136 56.2923 45.5256 56.2117 46.748C56.1558 47.4244 55.436 47.927 54.0399 48.1876Z" fill="#57B5FF"/>
<path d="M15.2017 36.9267L14.8418 36.6351C14.0414 35.8719 13.6566 35.2017 13.6939 34.6556C13.7745 33.4146 15.9277 32.7941 20.1411 33.0485C25.2651 33.4873 30.3304 34.4521 35.257 35.9277C40.4112 37.3372 45.4189 39.2364 50.2116 41.5993L49.8268 41.8226C45.1406 39.4994 40.2431 37.6294 35.2011 36.238C30.3761 34.7903 25.4147 33.8442 20.3955 33.4146C16.2752 33.1726 14.1903 33.7869 14.0848 34.9907C14.0414 35.5244 14.4199 36.1821 15.2017 36.9267Z" fill="#57B5FF"/>
<path d="M55.094 48.9543L54.5851 50.6731C54.2749 51.728 52.1775 52.2617 48.3117 52.0321C43.2925 51.6025 38.3311 50.6564 33.506 49.2087C28.4644 47.8163 23.567 45.9462 18.8803 43.624C14.878 41.6011 12.9295 39.8016 13.0102 38.604C13.0096 38.53 13.0222 38.4564 13.0474 38.3868L13.5563 36.668C13.5344 36.7384 13.5218 36.8114 13.519 36.8852C13.4384 38.0828 15.3806 39.8574 19.3892 41.93C24.0786 44.2458 28.9754 46.1156 34.0149 47.5147C38.8423 48.9429 43.8035 49.8724 48.8205 50.2884C52.6926 50.5366 54.7837 50.0092 55.094 48.9543Z" fill="#57B5FF"/>
<path d="M56.1666 45.3208L55.6578 47.0396C55.3413 48.0945 53.2439 48.622 49.3781 48.3924C44.3603 47.9671 39.3992 47.0294 34.5724 45.5938C29.5345 44.196 24.6397 42.3262 19.953 40.0091C15.9506 37.9366 13.9959 36.1619 14.0766 34.9643C14.0834 34.8992 14.0959 34.8348 14.1138 34.7719L14.6227 33.0469C14.6038 33.118 14.5914 33.1907 14.5854 33.2641C14.5048 34.4617 16.447 36.2364 20.4618 38.3089C25.1474 40.6285 30.0425 42.4985 35.0813 43.8936C39.9074 45.3354 44.8685 46.2794 49.8869 46.7108C53.7528 46.9217 55.8501 46.3881 56.1666 45.3208Z" fill="#57B5FF"/>
<path d="M50.3265 40.079C54.3288 42.1453 56.2835 43.9262 56.2028 45.1238C56.1221 46.3214 54.0124 46.9358 49.8859 46.6938C44.8675 46.2624 39.9064 45.3184 35.0802 43.8766C30.0415 42.4815 25.1464 40.6115 20.4608 38.2919C16.4584 36.2194 14.5038 34.4447 14.5844 33.2471C14.6651 32.0495 16.7749 31.4475 20.8951 31.6709C25.9137 32.1011 30.8749 33.0451 35.7008 34.4881C40.7421 35.8842 45.6394 37.7562 50.3265 40.079Z" fill="#57B5FF"/>
<path d="M56.1612 46.9454L55.46 49.322C55.1436 50.3955 52.978 50.9353 49.0563 50.7057C44.8429 50.4575 39.3761 49.3716 33.9342 47.8265C28.7903 46.4069 23.7917 44.5059 19.0044 42.1487C14.9214 40.0328 12.9295 38.2146 13.0102 36.9922C13.013 36.9185 13.0255 36.8455 13.0474 36.775L13.7486 34.3984C13.7291 34.4716 13.7167 34.5464 13.7114 34.6218C13.6307 35.8629 15.6226 37.6562 19.7118 39.7722C24.497 42.1341 29.4961 44.0352 34.6415 45.4499C39.568 46.9261 44.6333 47.8909 49.7574 48.3291C53.704 48.5649 55.8448 48.0189 56.1612 46.9454Z" fill="#57B5FF"/>
</svg>
