<svg width="48" height="48" viewBox="0 0 48 48" fill="none" xmlns="http://www.w3.org/2000/svg">
<path d="M24 0.25C37.1168 0.25 47.75 10.8832 47.75 24C47.75 37.1168 37.1168 47.75 24 47.75C10.8832 47.75 0.25 37.1168 0.25 24C0.25 10.8832 10.8832 0.25 24 0.25Z" stroke="#D2D2D2" stroke-width="0.5"/>
<path d="M24.0007 30.6663C27.6673 30.6663 30.6673 27.6663 30.6673 23.9997C30.6673 20.333 27.6673 17.333 24.0007 17.333C20.334 17.333 17.334 20.333 17.334 23.9997C17.334 27.6663 20.334 30.6663 24.0007 30.6663Z" stroke="#262626" stroke-width="1.5" stroke-linecap="round" stroke-linejoin="round"/>
<path d="M22.1133 25.8866L25.8866 22.1133" stroke="#262626" stroke-width="1.5" stroke-linecap="round" stroke-linejoin="round"/>
<path d="M25.8866 25.8866L22.1133 22.1133" stroke="#262626" stroke-width="1.5" stroke-linecap="round" stroke-linejoin="round"/>
</svg>
