<svg width="33" height="32" viewBox="0 0 33 32" fill="none" xmlns="http://www.w3.org/2000/svg">
<g clip-path="url(#clip0_3064_231650)">
<path d="M16.7715 31.998C25.608 31.998 32.7715 24.8346 32.7715 15.998C32.7715 7.16149 25.608 -0.00195312 16.7715 -0.00195312C7.93493 -0.00195312 0.771484 7.16149 0.771484 15.998C0.771484 24.8346 7.93493 31.998 16.7715 31.998Z" fill="#F7931A"/>
<path d="M23.9597 14.018C24.2737 11.922 22.6767 10.795 20.4947 10.043L21.2027 7.20305L19.4747 6.77305L18.7847 9.53805C18.3307 9.42405 17.8647 9.31805 17.3997 9.21205L18.0947 6.42905L16.3667 5.99805L15.6587 8.83705C15.2827 8.75105 14.9127 8.66705 14.5547 8.57705L14.5567 8.56805L12.1727 7.97305L11.7127 9.81905C11.7127 9.81905 12.9957 10.113 12.9687 10.131C13.6687 10.306 13.7947 10.769 13.7737 11.137L12.9677 14.372C13.0157 14.384 13.0777 14.402 13.1477 14.429L12.9647 14.384L11.8347 18.916C11.7487 19.128 11.5317 19.447 11.0417 19.326C11.0597 19.351 9.78574 19.013 9.78574 19.013L8.92773 20.991L11.1777 21.552C11.5957 21.657 12.0057 21.767 12.4087 21.87L11.6937 24.742L13.4207 25.172L14.1287 22.332C14.6007 22.459 15.0587 22.577 15.5067 22.689L14.8007 25.517L16.5287 25.947L17.2437 23.081C20.1917 23.639 22.4077 23.414 23.3407 20.748C24.0927 18.602 23.3037 17.363 21.7527 16.556C22.8827 16.296 23.7327 15.553 23.9597 14.018ZM20.0097 19.556C19.4767 21.703 15.8617 20.542 14.6897 20.251L15.6397 16.446C16.8117 16.739 20.5687 17.318 20.0097 19.556ZM20.5447 13.987C20.0577 15.94 17.0497 14.947 16.0747 14.704L16.9347 11.254C17.9097 11.497 21.0527 11.95 20.5447 13.987Z" fill="white"/>
</g>
<defs>
<clipPath id="clip0_3064_231650">
<rect width="32" height="32" fill="white" transform="translate(0.771484 -0.00195312)"/>
</clipPath>
</defs>
</svg>
