<svg width="205" height="112" viewBox="0 0 205 112" fill="none" xmlns="http://www.w3.org/2000/svg">
<g clip-path="url(#clip0_4790_185028)">
<path d="M99.4135 126.313C116.676 141.349 149.092 132.389 171.817 106.3C194.542 80.2103 198.971 46.8714 181.709 31.8351C164.447 16.7987 132.031 25.7589 109.305 51.8481C86.5801 77.9374 82.1514 111.276 99.4135 126.313Z" fill="#1F1F1D"/>
<path d="M143.374 127.414L135.832 119.782C136.581 119.096 138.147 117.693 138.418 117.568C138.688 117.444 148.765 104.964 153.77 98.7395C158.733 101.551 167.923 108.384 164.988 113.226C162.053 118.067 149.356 124.702 143.374 127.414Z" fill="white"/>
<path d="M93.7768 121.402C111.039 136.439 143.455 127.479 166.18 101.389C188.906 75.3001 193.334 41.9613 176.072 26.9249C158.81 11.8886 126.394 20.8487 103.669 46.938C80.9434 73.0272 76.5147 106.366 93.7768 121.402Z" fill="#03C94F"/>
<path d="M158.422 27.3292C158.422 27.3292 127.112 29.5815 107.181 55.1575C129.905 39.5595 128.065 35.2549 158.422 27.3292Z" fill="white"/>
<path d="M132.368 80.5448L133.045 81.1487C133.722 81.7527 134.949 81.5099 135.751 80.6113C136.747 79.4945 136.619 78.9882 136.294 78.2833L135.643 76.8955L132.379 80.5541L132.368 80.5448Z" fill="#111111" fill-opacity="0.5"/>
<path d="M147.615 61.8225C141.844 56.7192 132.046 58.3296 125.744 65.4342C119.443 72.5388 118.998 82.4489 124.77 87.5523C130.541 92.6557 140.339 91.0453 146.641 83.9407C152.942 76.836 153.375 66.9388 147.615 61.8225ZM138.431 76.9157C138.934 77.9871 139.363 79.7073 137.313 82.0051C135.549 83.982 132.869 84.4495 131.328 83.0743L130.651 82.4703L129.987 83.2149C129.517 83.7412 128.773 83.8617 128.346 83.4808C127.92 83.0998 127.955 82.3474 128.424 81.8211L129.089 81.0766L128.714 80.7421C127.006 79.2182 127.202 76.2109 129.149 74.0286C129.618 73.5023 130.362 73.3818 130.789 73.7627C131.216 74.1437 131.18 74.8961 130.711 75.4224C129.714 76.5392 129.588 78.0639 130.432 78.8165L130.807 79.151L134.678 74.8121L133.724 72.7159C133.221 71.6445 132.792 69.9243 134.842 67.6265C136.606 65.6496 139.287 65.1821 140.828 66.5573L141.505 67.1613L142.169 66.4167C142.639 65.8904 143.382 65.7699 143.809 66.1508C144.236 66.5318 144.201 67.2842 143.731 67.8105L143.067 68.555L143.442 68.8895C145.15 70.4134 144.954 73.4207 143.007 75.603C142.537 76.1293 141.794 76.2498 141.367 75.8689C140.94 75.4879 140.975 74.7355 141.445 74.2092C142.441 73.0924 142.567 71.5677 141.724 70.8151L141.349 70.4806L137.477 74.8195L138.431 76.9157Z" fill="#111111" fill-opacity="0.5"/>
<path d="M136.401 69.0427C135.405 70.1595 135.533 70.6658 135.858 71.3707L136.509 72.7585L139.785 69.0871L139.108 68.4831C138.431 67.8792 137.215 68.1313 136.401 69.0427Z" fill="#111111" fill-opacity="0.5"/>
</g>
<g clip-path="url(#clip1_4790_185028)">
<path d="M37.0581 144.121C54.3202 159.158 86.7364 150.197 109.462 124.108C132.187 98.0189 136.616 64.68 119.354 49.6437C102.091 34.6073 69.6752 43.5675 46.9499 69.6567C24.2247 95.746 19.7959 129.085 37.0581 144.121Z" fill="#1F1F1D"/>
<path d="M31.4214 139.211C48.6835 154.247 81.0997 145.287 103.825 119.198C126.55 93.1087 130.979 59.7699 113.717 44.7335C96.4547 29.6972 64.0385 38.6573 41.3132 64.7466C18.5879 90.8358 14.1592 124.175 31.4214 139.211Z" fill="#03C94F"/>
<path d="M96.0665 45.1378C96.0665 45.1378 64.7569 47.3901 44.826 72.9661C67.5498 57.3681 65.7095 53.0635 96.0665 45.1378Z" fill="white"/>
<path d="M71.7313 84.1636L79.1269 85.8743C79.4487 85.9538 79.6986 86.1769 79.8038 86.4782L82.343 93.6319C82.5627 94.266 83.553 93.9737 83.6633 93.2421L85.4548 80.7528C85.5818 79.8977 84.9986 79.3774 84.1635 79.6006L71.9583 82.7982C71.2543 83.0001 71.0763 84.0172 71.7313 84.1636Z" fill="#111111" fill-opacity="0.5"/>
<path d="M65.0899 91.6083L67.6395 98.7712C67.7551 99.0819 68.005 99.3049 68.3164 99.3752L75.7224 101.095C76.3774 101.242 76.1994 102.259 75.485 102.451L63.2798 105.649C62.4447 105.872 61.8615 105.352 61.9885 104.497L63.78 92.0074C63.8799 91.2665 64.8598 90.9649 65.0899 91.6083Z" fill="#111111" fill-opacity="0.5"/>
<path d="M76.3657 89.1984L69.7053 88.0053C69.1138 87.8926 68.5068 88.5729 68.6859 89.1478L70.6273 95.6297C70.6929 95.8497 70.8699 96.0076 71.0959 96.0478L77.7563 97.2409C78.3477 97.3536 78.9548 96.6732 78.7756 96.0984L76.8343 89.6165C76.7582 89.3872 76.5917 89.2386 76.3657 89.1984Z" fill="#111111" fill-opacity="0.5"/>
</g>
<defs>
<clipPath id="clip0_4790_185028">
<rect width="90.3927" height="125.545" fill="white" transform="translate(144.816 -0.292969) rotate(41.0578)"/>
</clipPath>
<clipPath id="clip1_4790_185028">
<rect width="90.3927" height="125.545" fill="white" transform="translate(82.4609 17.5156) rotate(41.0578)"/>
</clipPath>
</defs>
</svg>
