<svg width="1729" height="246" viewBox="0 0 1729 246" fill="none" xmlns="http://www.w3.org/2000/svg">
<path d="M1095.61 57.392L1107.17 57.392L1107.17 76.6602L1095.61 76.6602L1095.61 57.392Z" fill="#679BE4"/>
<path d="M1015.17 124.349C1020.95 126.919 1023.51 125.313 1022.87 119.532C1022.87 113.11 1025.76 111.183 1031.54 113.752C1036.68 116.963 1038.93 115.358 1038.29 108.935C1038.29 103.154 1041.18 101.549 1046.96 104.118" stroke="#FFEA00" stroke-width="3.85363" stroke-linecap="round"/>
<path d="M761.308 21.7461L759.381 -14.8634" stroke="#FFEA00" stroke-width="3.85363" stroke-linecap="round"/>
<path d="M637.992 101.71L664.968 140.246" stroke="#679BE4" stroke-width="2.89022" stroke-linecap="round"/>
<path d="M923.16 -31.2431L923.16 -0.414062" stroke="#26D9CA" stroke-width="2.89022" stroke-linecap="round"/>
<path d="M721.724 197.086C727.044 197.179 731.394 195.098 731.441 192.438C731.487 189.778 727.212 187.546 721.892 187.453C716.572 187.36 712.222 189.441 712.176 192.101C712.129 194.761 716.404 196.993 721.724 197.086Z" fill="#73CC33"/>
<path d="M766.124 184.562L756.49 142.173" stroke="#26D9CA" stroke-width="2.89022" stroke-linecap="round"/>
<path d="M977.111 209.609L980.965 192.268L995.416 199.975L977.111 209.609Z" fill="#3DA329"/>
<path d="M895.138 212.094L891.725 211.45L890.219 207.903L888.312 210.806L884.388 211.425L886.404 213.709L886.136 218.009L889.684 216.503L892.587 218.411L891.968 214.487L895.138 212.094Z" fill="#73CC33"/>
<path d="M769.979 50.6497L774.796 39.0888L793.1 47.7594L787.32 59.3203L769.979 50.6497Z" fill="#1A9FFF"/>
<path d="M833.563 89.1836L822.002 80.5129L834.526 74.7325L833.563 89.1836Z" fill="#73CC33"/>
<path d="M1080 230.273C1078.07 223.077 1074.01 217.914 1070.92 218.741C1067.84 219.567 1066.9 226.07 1068.83 233.265C1070.76 240.46 1074.82 245.623 1077.91 244.797C1080.99 243.971 1081.93 237.468 1080 230.273Z" fill="#3DA329"/>
<path d="M1107.17 22.7109L1076.34 -6.19127" stroke="#3DA329" stroke-width="2.89022" stroke-linecap="round"/>
<path d="M949.3 145.93C947.12 147.456 946.591 150.459 948.117 152.639C949.643 154.818 952.646 155.347 954.826 153.822C957.005 152.296 957.534 149.292 956.009 147.113C954.483 144.933 951.479 144.404 949.3 145.93Z" fill="#73CC33"/>
<path d="M572.48 116.642C573.123 122.422 576.013 123.707 581.151 120.495C586.289 117.284 589.18 118.568 589.822 124.349C590.464 130.772 593.354 132.056 598.492 128.202C603.631 124.991 606.521 126.597 607.163 133.02" stroke="#26D9CA" stroke-width="2.89022" stroke-linecap="round"/>
<path d="M1087.9 172.52C1093.04 169.308 1093.04 166.418 1087.9 163.849C1082.76 160.638 1082.76 157.426 1087.9 154.215C1093.04 151.646 1093.04 148.755 1087.9 145.544C1082.76 142.975 1082.76 140.085 1087.9 136.873" stroke="#FFEA00" stroke-width="3.85363" stroke-linecap="round"/>
<path d="M954.952 63.1739L964.586 58.3569L972.293 71.8446L963.623 77.625L954.952 63.1739Z" fill="#73CC33"/>
<path d="M968.416 13.6985L964.144 14.256L961.989 11.0612L961.209 15.0735L958.014 17.2284L961.228 18.547L961.785 22.8193L964.441 19.8657L968.454 20.6456L967.097 16.912L968.416 13.6985Z" fill="#26D9CA"/>
<path d="M671.711 51.1273C671.068 45.3469 669.141 44.7046 665.93 49.2005C662.719 53.6964 660.792 53.3753 660.15 48.2371C660.792 42.4567 659.507 41.8144 656.296 46.3103C653.085 50.8062 651.158 50.1639 650.516 44.3835" stroke="#1A9FFF" stroke-width="2.89022" stroke-linecap="round"/>
<path d="M824.749 195.191L823.397 201.21L817.779 202.878L823.354 205.518L823.291 211.98L827.641 207.715L832.794 209.489L831.126 203.871L834.189 199.162L828.149 199.964L824.749 195.191Z" fill="#26D9CA"/>
<path d="M1146.67 112.308L1151.49 127.722L1136.07 132.539L1131.26 117.125L1146.67 112.308Z" fill="#3DA329"/>
<path d="M614.6 228.513C620.637 230.592 626.514 229.422 627.727 225.9C628.94 222.379 625.029 217.839 618.992 215.76C612.955 213.681 607.078 214.851 605.865 218.373C604.652 221.894 608.563 226.434 614.6 228.513Z" fill="#1A9FFF"/>
<path d="M822.002 137.353L826.819 125.793L835.49 130.61L830.673 141.207L822.002 137.353Z" fill="#3DA329"/>
<path d="M670.859 241.499L672.31 238.82L675.323 238.373L672.812 235.973L673.314 233.127L671.082 234.69L668.57 232.291L668.849 236.253L665.668 237.649L669.464 238.318L670.859 241.499Z" fill="#3DA329"/>
<path d="M723.734 94.9642L726.625 86.2936L741.076 91.1106L738.185 99.7812L723.734 94.9642Z" fill="#FFEA00"/>
<path d="M761.307 238.512L797.916 217.317" stroke="#3DA329" stroke-width="3.85363" stroke-linecap="round"/>
<path d="M610.727 47.9247L607.669 49.572L604.266 47.7629L604.611 51.2193L601.1 53.7173L604.955 54.6758L606.15 58.5846L608.81 55.6344L612.719 54.4393L609.768 51.7795L610.727 47.9247Z" fill="#1A9FFF"/>
<path d="M1054.01 159.105C1055.09 154.439 1053.02 149.978 1049.39 149.14C1045.76 148.302 1041.95 151.405 1040.87 156.071C1039.79 160.737 1041.86 165.199 1045.49 166.037C1049.12 166.874 1052.93 163.771 1054.01 159.105Z" fill="#FFEA00"/>
<path d="M897.346 55.9477C894.952 60.0948 896.372 65.3977 900.52 67.7921C904.667 70.1864 909.97 68.7655 912.364 64.6184C914.758 60.4713 913.337 55.1684 909.19 52.774C905.043 50.3797 899.74 51.8006 897.346 55.9477Z" fill="#679BE4"/>
<path d="M793.102 6.32997L800.809 -4.26751L804.662 10.1836L793.102 6.32997Z" fill="#73CC33"/>
<path d="M1103.32 192.268L1109.1 209.609" stroke="#26D9CA" stroke-width="2.89022" stroke-linecap="round"/>
<path d="M1037.9 42.3934L1032.78 40.5295L1030.74 36.1638L1028.47 40.4118L1023.29 40.7013L1026.2 44.6599L1025.21 49.3739L1029.57 47.3381L1034.23 50.4824L1033.94 45.3024L1037.9 42.3934Z" fill="#3DA329"/>
<path d="M682.308 167.219L679.418 155.658L690.979 155.658L682.308 167.219Z" fill="#679BE4"/>
<path d="M719.881 23.6725L723.735 32.3431L712.174 37.1602L708.32 28.4895L719.881 23.6725Z" fill="#73CC33"/>
<path d="M785.494 103.634C792.41 103.513 797.971 100.827 797.915 97.6354C797.859 94.4434 792.208 91.9537 785.292 92.0744C778.376 92.1951 772.815 94.8806 772.87 98.0725C772.926 101.264 778.578 103.754 785.494 103.634Z" fill="#679BE4"/>
<path d="M876.434 224.063C882.214 225.989 885.104 224.063 885.104 218.282C885.747 211.859 888.958 209.933 894.738 212.502C900.519 215.071 903.409 213.144 903.409 206.721C903.409 200.299 906.299 198.372 912.08 200.941" stroke="#679BE4" stroke-width="2.89022" stroke-linecap="round"/>
<path d="M906.782 145.062L902.929 160.477L890.404 150.842L906.782 145.062Z" fill="#FFEA00"/>
<path d="M1099.46 177.819L1132.22 179.746" stroke="#1A9FFF" stroke-width="2.89022" stroke-linecap="round"/>
<path d="M993.489 124.832L974.221 122.905" stroke="#73CC33" stroke-width="2.89022" stroke-linecap="round"/>
<path d="M810.862 89.7015C812.661 85.8437 811.774 81.6226 808.88 80.2734C805.987 78.9242 802.183 80.9578 800.384 84.8156C798.585 88.6734 799.472 92.8945 802.366 94.2437C805.259 95.5929 809.063 93.5593 810.862 89.7015Z" fill="#26D9CA"/>
<path d="M911.117 213.465C909.19 207.684 905.658 206.721 900.519 210.575C896.023 214.428 892.812 213.465 890.885 207.684C888.959 201.904 885.747 200.941 881.251 204.794C876.113 208.648 872.902 207.684 871.617 201.904" stroke="#FFEA00" stroke-width="2.89022" stroke-linecap="round"/>
<path d="M927.733 74.5871L936.087 79.3852L937.261 88.9474L944.206 82.2708L953.282 85.039L949.239 75.829L955.111 68.3135L945.431 68.5314L938.755 61.5861L937.06 71.5006L927.733 74.5871Z" fill="#26D9CA"/>
<path d="M1122.58 50.6484L1157.27 27.5267" stroke="#3DA329" stroke-width="3.85363" stroke-linecap="round"/>
<path d="M648.588 167.219L651.478 156.621L661.112 161.438L648.588 167.219Z" fill="#3DA329"/>
<path d="M1138.48 204.795C1133.99 208.006 1134.31 210.897 1139.44 213.466C1145.22 215.392 1145.55 217.962 1140.41 221.173C1135.91 224.384 1136.55 227.274 1142.33 229.844C1147.47 231.77 1147.79 234.339 1143.3 237.551" stroke="#FFEA00" stroke-width="2.89022" stroke-linecap="round"/>
<path d="M579.225 192.27L606.2 157.587" stroke="#679BE4" stroke-width="3.85363" stroke-linecap="round"/>
<path d="M847.051 24.6373L862.465 27.5275L848.978 38.125L847.051 24.6373Z" fill="#26D9CA"/>
<path d="M1041.66 20.7823C1041.02 26.5627 1042.62 27.205 1046.48 22.7091C1050.97 18.8555 1052.9 19.8189 1052.26 25.5993C1051.61 31.3798 1053.22 32.022 1057.07 27.5261C1060.93 23.6725 1062.85 24.6359 1062.85 30.4163" stroke="#73CC33" stroke-width="2.89022" stroke-linecap="round"/>
<path d="M600.419 120.015L594.639 143.137" stroke="#1A9FFF" stroke-width="3.85363" stroke-linecap="round"/>
<path d="M958.806 73.7695L956.879 54.5014" stroke="#1A9FFF" stroke-width="3.85363" stroke-linecap="round"/>
<path d="M649.553 106.527L634.139 104.601L636.065 93.0396L651.48 94.9665L649.553 106.527Z" fill="#1A9FFF"/>
<path d="M524.004 57.392L535.565 57.392L535.565 76.6602L524.004 76.6602L524.004 57.392Z" fill="#679BE4"/>
<path d="M443.559 124.349C449.339 126.919 451.908 125.313 451.266 119.532C451.266 113.11 454.156 111.183 459.937 113.752C465.075 116.963 467.323 115.358 466.68 108.935C466.68 103.154 469.571 101.549 475.351 104.118" stroke="#FFEA00" stroke-width="3.85363" stroke-linecap="round"/>
<path d="M189.7 21.7461L187.773 -14.8634" stroke="#FFEA00" stroke-width="3.85363" stroke-linecap="round"/>
<path d="M66.3848 101.71L93.3602 140.246" stroke="#679BE4" stroke-width="2.89022" stroke-linecap="round"/>
<path d="M351.553 -31.2431L351.553 -0.414062" stroke="#26D9CA" stroke-width="2.89022" stroke-linecap="round"/>
<path d="M150.117 197.086C155.437 197.179 159.787 195.098 159.833 192.438C159.88 189.778 155.605 187.546 150.285 187.453C144.965 187.36 140.615 189.441 140.568 192.101C140.522 194.761 144.797 196.993 150.117 197.086Z" fill="#73CC33"/>
<path d="M194.517 184.562L184.883 142.173" stroke="#26D9CA" stroke-width="2.89022" stroke-linecap="round"/>
<path d="M405.504 209.609L409.358 192.268L423.809 199.975L405.504 209.609Z" fill="#3DA329"/>
<path d="M323.53 212.094L320.117 211.45L318.611 207.903L316.703 210.806L312.78 211.425L314.796 213.709L314.528 218.009L318.075 216.503L320.978 218.411L320.359 214.487L323.53 212.094Z" fill="#73CC33"/>
<path d="M198.371 50.6497L203.188 39.0888L221.493 47.7594L215.712 59.3203L198.371 50.6497Z" fill="#1A9FFF"/>
<path d="M261.955 89.1836L250.395 80.5129L262.919 74.7325L261.955 89.1836Z" fill="#73CC33"/>
<path d="M508.391 230.273C506.463 223.077 502.4 217.914 499.317 218.741C496.233 219.567 495.296 226.07 497.224 233.265C499.152 240.46 503.215 245.623 506.298 244.797C509.382 243.971 510.319 237.468 508.391 230.273Z" fill="#3DA329"/>
<path d="M535.563 22.7109L504.734 -6.19127" stroke="#3DA329" stroke-width="2.89022" stroke-linecap="round"/>
<path d="M377.692 145.93C375.513 147.456 374.983 150.459 376.509 152.639C378.035 154.818 381.039 155.347 383.218 153.822C385.397 152.296 385.927 149.292 384.401 147.113C382.875 144.933 379.872 144.404 377.692 145.93Z" fill="#73CC33"/>
<path d="M0.873046 116.642C1.51532 122.422 4.40554 123.707 9.54371 120.495C14.6819 117.284 17.5721 118.568 18.2144 124.349C18.8566 130.772 21.7469 132.056 26.885 128.202C32.0232 124.991 34.9134 126.597 35.5557 133.02" stroke="#26D9CA" stroke-width="2.89022" stroke-linecap="round"/>
<path d="M516.295 172.52C521.433 169.308 521.433 166.418 516.295 163.849C511.157 160.638 511.157 157.426 516.295 154.215C521.433 151.646 521.433 148.755 516.295 145.544C511.157 142.975 511.157 140.085 516.295 136.873" stroke="#FFEA00" stroke-width="3.85363" stroke-linecap="round"/>
<path d="M383.346 63.1739L392.98 58.3569L400.687 71.8446L392.016 77.625L383.346 63.1739Z" fill="#73CC33"/>
<path d="M396.809 13.6985L392.536 14.256L390.381 11.0612L389.601 15.0735L386.407 17.2284L389.62 18.547L390.178 22.8193L392.834 19.8657L396.846 20.6456L395.49 16.912L396.809 13.6985Z" fill="#26D9CA"/>
<path d="M100.103 51.1273C99.4609 45.3469 97.5341 44.7046 94.3227 49.2005C91.1114 53.6964 89.1845 53.3753 88.5423 48.2371C89.1845 42.4567 87.9 41.8144 84.6886 46.3103C81.4773 50.8062 79.5505 50.1639 78.9082 44.3835" stroke="#1A9FFF" stroke-width="2.89022" stroke-linecap="round"/>
<path d="M253.143 195.191L251.791 201.21L246.174 202.878L251.749 205.518L251.685 211.98L256.036 207.715L261.189 209.489L259.521 203.871L262.583 199.162L256.543 199.964L253.143 195.191Z" fill="#26D9CA"/>
<path d="M575.063 112.308L579.88 127.722L564.465 132.539L559.648 117.125L575.063 112.308Z" fill="#3DA329"/>
<path d="M42.9949 228.513C49.032 230.592 54.909 229.422 56.1216 225.9C57.3341 222.379 53.4231 217.839 47.3861 215.76C41.3491 213.681 35.4721 214.851 34.2595 218.373C33.0469 221.894 36.9579 226.434 42.9949 228.513Z" fill="#1A9FFF"/>
<path d="M250.395 137.353L255.212 125.793L263.882 130.61L259.065 141.207L250.395 137.353Z" fill="#3DA329"/>
<path d="M99.2518 241.499L100.702 238.82L103.716 238.373L101.204 235.973L101.706 233.127L99.4741 234.69L96.9624 232.291L97.242 236.253L94.0611 237.649L97.8561 238.318L99.2518 241.499Z" fill="#3DA329"/>
<path d="M152.127 94.9642L155.017 86.2936L169.468 91.1106L166.578 99.7812L152.127 94.9642Z" fill="#FFEA00"/>
<path d="M189.701 238.512L226.311 217.317" stroke="#3DA329" stroke-width="3.85363" stroke-linecap="round"/>
<path d="M39.1195 47.9247L36.0613 49.572L32.6587 47.7629L33.0031 51.2193L29.4927 53.7173L33.3475 54.6758L34.5426 58.5846L37.2024 55.6344L41.1112 54.4393L38.1609 51.7795L39.1195 47.9247Z" fill="#1A9FFF"/>
<path d="M482.403 159.105C483.48 154.439 481.412 149.978 477.782 149.14C474.153 148.302 470.338 151.405 469.261 156.071C468.184 160.737 470.252 165.199 473.882 166.037C477.511 166.874 481.326 163.771 482.403 159.105Z" fill="#FFEA00"/>
<path d="M325.738 55.9477C323.344 60.0948 324.765 65.3977 328.912 67.7921C333.059 70.1864 338.362 68.7655 340.756 64.6184C343.151 60.4713 341.73 55.1684 337.583 52.774C333.436 50.3797 328.133 51.8006 325.738 55.9477Z" fill="#679BE4"/>
<path d="M221.494 6.32997L229.201 -4.26751L233.055 10.1836L221.494 6.32997Z" fill="#73CC33"/>
<path d="M531.709 192.268L537.489 209.609" stroke="#26D9CA" stroke-width="2.89022" stroke-linecap="round"/>
<path d="M466.289 42.3934L461.168 40.5295L459.132 36.1638L456.861 40.4118L451.681 40.7013L454.59 44.6599L453.599 49.3739L457.965 47.3381L462.62 50.4824L462.331 45.3024L466.289 42.3934Z" fill="#3DA329"/>
<path d="M110.701 167.219L107.811 155.658L119.371 155.658L110.701 167.219Z" fill="#679BE4"/>
<path d="M148.274 23.6725L152.127 32.3431L140.567 37.1602L136.713 28.4895L148.274 23.6725Z" fill="#73CC33"/>
<path d="M213.886 103.634C220.802 103.513 226.363 100.827 226.308 97.6354C226.252 94.4434 220.6 91.9537 213.684 92.0744C206.769 92.1951 201.207 94.8806 201.263 98.0725C201.319 101.264 206.97 103.754 213.886 103.634Z" fill="#679BE4"/>
<path d="M304.828 224.063C310.609 225.989 313.499 224.063 313.499 218.282C314.141 211.859 317.352 209.933 323.133 212.502C328.913 215.071 331.804 213.144 331.804 206.721C331.804 200.299 334.694 198.372 340.474 200.941" stroke="#679BE4" stroke-width="2.89022" stroke-linecap="round"/>
<path d="M335.175 145.062L331.321 160.477L318.797 150.842L335.175 145.062Z" fill="#FFEA00"/>
<path d="M527.855 177.819L560.611 179.746" stroke="#1A9FFF" stroke-width="2.89022" stroke-linecap="round"/>
<path d="M421.881 124.832L402.613 122.905" stroke="#73CC33" stroke-width="2.89022" stroke-linecap="round"/>
<path d="M239.256 89.7015C241.055 85.8437 240.168 81.6226 237.275 80.2734C234.381 78.9242 230.578 80.9578 228.779 84.8156C226.98 88.6734 227.867 92.8945 230.76 94.2437C233.654 95.5929 237.458 93.5593 239.256 89.7015Z" fill="#26D9CA"/>
<path d="M339.509 213.465C337.583 207.684 334.05 206.721 328.912 210.575C324.416 214.428 321.205 213.465 319.278 207.684C317.351 201.904 314.14 200.941 309.644 204.794C304.506 208.648 301.294 207.684 300.01 201.904" stroke="#FFEA00" stroke-width="2.89022" stroke-linecap="round"/>
<path d="M356.125 74.5871L364.48 79.3852L365.654 88.9474L372.599 82.2708L381.675 85.039L377.632 75.829L383.504 68.3135L373.824 68.5314L367.147 61.5861L365.453 71.5006L356.125 74.5871Z" fill="#26D9CA"/>
<path d="M550.979 50.6484L585.661 27.5267" stroke="#3DA329" stroke-width="3.85363" stroke-linecap="round"/>
<path d="M76.9824 167.219L79.8726 156.621L89.5067 161.438L76.9824 167.219Z" fill="#3DA329"/>
<path d="M566.874 204.795C562.378 208.006 562.699 210.897 567.837 213.466C573.618 215.392 573.939 217.962 568.801 221.173C564.305 224.384 564.947 227.274 570.727 229.844C575.865 231.77 576.187 234.339 571.691 237.551" stroke="#FFEA00" stroke-width="2.89022" stroke-linecap="round"/>
<path d="M7.61719 192.27L34.5926 157.587" stroke="#679BE4" stroke-width="3.85363" stroke-linecap="round"/>
<path d="M275.443 24.6373L290.858 27.5275L277.37 38.125L275.443 24.6373Z" fill="#26D9CA"/>
<path d="M470.052 20.7823C469.409 26.5627 471.015 27.205 474.869 22.7091C479.365 18.8555 481.291 19.8189 480.649 25.5993C480.007 31.3798 481.613 32.022 485.466 27.5261C489.32 23.6725 491.247 24.6359 491.247 30.4163" stroke="#73CC33" stroke-width="2.89022" stroke-linecap="round"/>
<path d="M28.8117 120.015L23.0312 143.137" stroke="#1A9FFF" stroke-width="3.85363" stroke-linecap="round"/>
<path d="M387.198 73.7695L385.271 54.5014" stroke="#1A9FFF" stroke-width="3.85363" stroke-linecap="round"/>
<path d="M77.9458 106.527L62.5312 104.601L64.4581 93.0396L79.8726 94.9665L77.9458 106.527Z" fill="#1A9FFF"/>
<path d="M1667.21 57.392L1678.78 57.392L1678.78 76.6602L1667.21 76.6602L1667.21 57.392Z" fill="#679BE4"/>
<path d="M1586.77 124.349C1592.55 126.919 1595.12 125.313 1594.48 119.532C1594.48 113.11 1597.37 111.183 1603.15 113.752C1608.29 116.963 1610.53 115.358 1609.89 108.935C1609.89 103.154 1612.78 101.549 1618.56 104.118" stroke="#FFEA00" stroke-width="3.85363" stroke-linecap="round"/>
<path d="M1332.91 21.7461L1330.99 -14.8634" stroke="#FFEA00" stroke-width="3.85363" stroke-linecap="round"/>
<path d="M1209.6 101.71L1236.57 140.246" stroke="#679BE4" stroke-width="2.89022" stroke-linecap="round"/>
<path d="M1494.77 -31.2431L1494.77 -0.414062" stroke="#26D9CA" stroke-width="2.89022" stroke-linecap="round"/>
<path d="M1293.33 197.086C1298.65 197.179 1303 195.098 1303.05 192.438C1303.09 189.778 1298.82 187.546 1293.5 187.453C1288.18 187.36 1283.83 189.441 1283.78 192.101C1283.73 194.761 1288.01 196.993 1293.33 197.086Z" fill="#73CC33"/>
<path d="M1337.73 184.562L1328.1 142.173" stroke="#26D9CA" stroke-width="2.89022" stroke-linecap="round"/>
<path d="M1548.72 209.609L1552.57 192.268L1567.02 199.975L1548.72 209.609Z" fill="#3DA329"/>
<path d="M1466.74 212.094L1463.33 211.45L1461.82 207.903L1459.92 210.806L1455.99 211.425L1458.01 213.709L1457.74 218.009L1461.29 216.503L1464.19 218.411L1463.57 214.487L1466.74 212.094Z" fill="#73CC33"/>
<path d="M1341.58 50.6497L1346.4 39.0888L1364.71 47.7594L1358.93 59.3203L1341.58 50.6497Z" fill="#1A9FFF"/>
<path d="M1405.17 89.1836L1393.61 80.5129L1406.13 74.7325L1405.17 89.1836Z" fill="#73CC33"/>
<path d="M1651.6 230.273C1649.68 223.077 1645.61 217.914 1642.53 218.741C1639.45 219.567 1638.51 226.07 1640.44 233.265C1642.36 240.46 1646.43 245.623 1649.51 244.797C1652.59 243.971 1653.53 237.468 1651.6 230.273Z" fill="#3DA329"/>
<path d="M1678.78 22.7109L1647.95 -6.19127" stroke="#3DA329" stroke-width="2.89022" stroke-linecap="round"/>
<path d="M1520.9 145.93C1518.72 147.456 1518.2 150.459 1519.72 152.639C1521.25 154.818 1524.25 155.347 1526.43 153.822C1528.61 152.296 1529.14 149.292 1527.61 147.113C1526.09 144.933 1523.08 144.404 1520.9 145.93Z" fill="#73CC33"/>
<path d="M1144.08 116.642C1144.73 122.422 1147.62 123.707 1152.76 120.495C1157.89 117.284 1160.78 118.568 1161.43 124.349C1162.07 130.772 1164.96 132.056 1170.1 128.202C1175.24 124.991 1178.13 126.597 1178.77 133.02" stroke="#26D9CA" stroke-width="2.89022" stroke-linecap="round"/>
<path d="M1659.51 172.52C1664.65 169.308 1664.65 166.418 1659.51 163.849C1654.37 160.638 1654.37 157.426 1659.51 154.215C1664.65 151.646 1664.65 148.755 1659.51 145.544C1654.37 142.975 1654.37 140.085 1659.51 136.873" stroke="#FFEA00" stroke-width="3.85363" stroke-linecap="round"/>
<path d="M1526.56 63.1739L1536.19 58.3569L1543.9 71.8446L1535.23 77.625L1526.56 63.1739Z" fill="#73CC33"/>
<path d="M1540.02 13.6985L1535.75 14.256L1533.59 11.0612L1532.81 15.0735L1529.62 17.2284L1532.83 18.547L1533.39 22.8193L1536.05 19.8657L1540.06 20.6456L1538.7 16.912L1540.02 13.6985Z" fill="#26D9CA"/>
<path d="M1243.32 51.1273C1242.67 45.3469 1240.75 44.7046 1237.54 49.2005C1234.32 53.6964 1232.4 53.3753 1231.76 48.2371C1232.4 42.4567 1231.11 41.8144 1227.9 46.3103C1224.69 50.8062 1222.76 50.1639 1222.12 44.3835" stroke="#1A9FFF" stroke-width="2.89022" stroke-linecap="round"/>
<path d="M1396.36 195.191L1395 201.21L1389.39 202.878L1394.96 205.518L1394.9 211.98L1399.25 207.715L1404.4 209.489L1402.73 203.871L1405.8 199.162L1399.76 199.964L1396.36 195.191Z" fill="#26D9CA"/>
<path d="M1718.28 112.308L1723.09 127.722L1707.68 132.539L1702.86 117.125L1718.28 112.308Z" fill="#3DA329"/>
<path d="M1186.21 228.513C1192.24 230.592 1198.12 229.422 1199.33 225.9C1200.55 222.379 1196.63 217.839 1190.6 215.76C1184.56 213.681 1178.68 214.851 1177.47 218.373C1176.26 221.894 1180.17 226.434 1186.21 228.513Z" fill="#1A9FFF"/>
<path d="M1393.61 137.353L1398.42 125.793L1407.1 130.61L1402.28 141.207L1393.61 137.353Z" fill="#3DA329"/>
<path d="M1242.46 241.499L1243.92 238.82L1246.93 238.373L1244.42 235.973L1244.92 233.127L1242.69 234.69L1240.18 232.291L1240.45 236.253L1237.27 237.649L1241.07 238.318L1242.46 241.499Z" fill="#3DA329"/>
<path d="M1295.34 94.9642L1298.23 86.2936L1312.68 91.1106L1309.79 99.7812L1295.34 94.9642Z" fill="#FFEA00"/>
<path d="M1332.91 238.512L1369.52 217.317" stroke="#3DA329" stroke-width="3.85363" stroke-linecap="round"/>
<path d="M1182.33 47.9247L1179.27 49.572L1175.87 47.7629L1176.22 51.2193L1172.71 53.7173L1176.56 54.6758L1177.76 58.5846L1180.42 55.6344L1184.32 54.4393L1181.37 51.7795L1182.33 47.9247Z" fill="#1A9FFF"/>
<path d="M1625.61 159.105C1626.69 154.439 1624.62 149.978 1620.99 149.14C1617.37 148.302 1613.55 151.405 1612.47 156.071C1611.4 160.737 1613.46 165.199 1617.09 166.037C1620.72 166.874 1624.54 163.771 1625.61 159.105Z" fill="#FFEA00"/>
<path d="M1468.95 55.9477C1466.56 60.0948 1467.98 65.3977 1472.13 67.7921C1476.27 70.1864 1481.58 68.7655 1483.97 64.6184C1486.36 60.4713 1484.94 55.1684 1480.8 52.774C1476.65 50.3797 1471.35 51.8006 1468.95 55.9477Z" fill="#679BE4"/>
<path d="M1364.71 6.32997L1372.41 -4.26751L1376.27 10.1836L1364.71 6.32997Z" fill="#73CC33"/>
<path d="M1674.92 192.268L1680.7 209.609" stroke="#26D9CA" stroke-width="2.89022" stroke-linecap="round"/>
<path d="M1609.5 42.3934L1604.38 40.5295L1602.35 36.1638L1600.07 40.4118L1594.89 40.7013L1597.8 44.6599L1596.81 49.3739L1601.18 47.3381L1605.83 50.4824L1605.54 45.3024L1609.5 42.3934Z" fill="#3DA329"/>
<path d="M1253.91 167.219L1251.02 155.658L1262.58 155.658L1253.91 167.219Z" fill="#679BE4"/>
<path d="M1291.49 23.6725L1295.34 32.3431L1283.78 37.1602L1279.93 28.4895L1291.49 23.6725Z" fill="#73CC33"/>
<path d="M1357.1 103.634C1364.02 103.513 1369.58 100.827 1369.52 97.6354C1369.46 94.4434 1363.81 91.9537 1356.9 92.0744C1349.98 92.1951 1344.42 94.8806 1344.48 98.0725C1344.53 101.264 1350.18 103.754 1357.1 103.634Z" fill="#679BE4"/>
<path d="M1448.04 224.063C1453.82 225.989 1456.71 224.063 1456.71 218.282C1457.35 211.859 1460.56 209.933 1466.34 212.502C1472.13 215.071 1475.02 213.144 1475.02 206.721C1475.02 200.299 1477.91 198.372 1483.69 200.941" stroke="#679BE4" stroke-width="2.89022" stroke-linecap="round"/>
<path d="M1478.39 145.062L1474.53 160.477L1462.01 150.842L1478.39 145.062Z" fill="#FFEA00"/>
<path d="M1671.07 177.819L1703.82 179.746" stroke="#1A9FFF" stroke-width="2.89022" stroke-linecap="round"/>
<path d="M1565.09 124.832L1545.83 122.905" stroke="#73CC33" stroke-width="2.89022" stroke-linecap="round"/>
<path d="M1382.47 89.7015C1384.27 85.8437 1383.38 81.6226 1380.49 80.2734C1377.59 78.9242 1373.79 80.9578 1371.99 84.8156C1370.19 88.6734 1371.08 92.8945 1373.97 94.2437C1376.87 95.5929 1380.67 93.5593 1382.47 89.7015Z" fill="#26D9CA"/>
<path d="M1482.72 213.465C1480.8 207.684 1477.26 206.721 1472.12 210.575C1467.63 214.428 1464.42 213.465 1462.49 207.684C1460.56 201.904 1457.35 200.941 1452.86 204.794C1447.72 208.648 1444.51 207.684 1443.22 201.904" stroke="#FFEA00" stroke-width="2.89022" stroke-linecap="round"/>
<path d="M1499.34 74.5871L1507.69 79.3852L1508.87 88.9474L1515.81 82.2708L1524.89 85.039L1520.84 75.829L1526.72 68.3135L1517.04 68.5314L1510.36 61.5861L1508.67 71.5006L1499.34 74.5871Z" fill="#26D9CA"/>
<path d="M1694.19 50.6484L1728.87 27.5267" stroke="#3DA329" stroke-width="3.85363" stroke-linecap="round"/>
<path d="M1220.19 167.219L1223.08 156.621L1232.72 161.438L1220.19 167.219Z" fill="#3DA329"/>
<path d="M1710.09 204.795C1705.59 208.006 1705.91 210.897 1711.05 213.466C1716.83 215.392 1717.15 217.962 1712.01 221.173C1707.52 224.384 1708.16 227.274 1713.94 229.844C1719.08 231.77 1719.4 234.339 1714.9 237.551" stroke="#FFEA00" stroke-width="2.89022" stroke-linecap="round"/>
<path d="M1150.83 192.27L1177.8 157.587" stroke="#679BE4" stroke-width="3.85363" stroke-linecap="round"/>
<path d="M1418.66 24.6373L1434.07 27.5275L1420.58 38.125L1418.66 24.6373Z" fill="#26D9CA"/>
<path d="M1613.26 20.7823C1612.62 26.5627 1614.23 27.205 1618.08 22.7091C1622.58 18.8555 1624.5 19.8189 1623.86 25.5993C1623.22 31.3798 1624.82 32.022 1628.68 27.5261C1632.53 23.6725 1634.46 24.6359 1634.46 30.4163" stroke="#73CC33" stroke-width="2.89022" stroke-linecap="round"/>
<path d="M1172.02 120.015L1166.24 143.137" stroke="#1A9FFF" stroke-width="3.85363" stroke-linecap="round"/>
<path d="M1530.41 73.7695L1528.48 54.5014" stroke="#1A9FFF" stroke-width="3.85363" stroke-linecap="round"/>
<path d="M1221.16 106.527L1205.74 104.601L1207.67 93.0396L1223.08 94.9665L1221.16 106.527Z" fill="#1A9FFF"/>
</svg>
