<svg width="33" height="32" viewBox="0 0 33 32" fill="none" xmlns="http://www.w3.org/2000/svg">
<g clip-path="url(#clip0_3064_231665)">
<path d="M16.7715 31.998C25.608 31.998 32.7715 24.8346 32.7715 15.998C32.7715 7.16149 25.608 -0.00195312 16.7715 -0.00195312C7.93493 -0.00195312 0.771484 7.16149 0.771484 15.998C0.771484 24.8346 7.93493 31.998 16.7715 31.998Z" fill="#627EEA"/>
<path d="M17.2695 3.99805V12.868L24.7665 16.218L17.2695 3.99805Z" fill="white" fill-opacity="0.602"/>
<path d="M17.2695 3.99805L9.77148 16.218L17.2695 12.868V3.99805Z" fill="white"/>
<path d="M17.2695 21.9663V27.9933L24.7715 17.6143L17.2695 21.9663Z" fill="white" fill-opacity="0.602"/>
<path d="M17.2695 27.9933V21.9653L9.77148 17.6143L17.2695 27.9933Z" fill="white"/>
<path d="M17.2695 20.5711L24.7665 16.2181L17.2695 12.8701V20.5711Z" fill="white" fill-opacity="0.2"/>
<path d="M9.77148 16.2181L17.2695 20.5711V12.8701L9.77148 16.2181Z" fill="white" fill-opacity="0.602"/>
</g>
<defs>
<clipPath id="clip0_3064_231665">
<rect width="32" height="32" fill="white" transform="translate(0.771484 -0.00195312)"/>
</clipPath>
</defs>
</svg>
