<svg width="16" height="16" viewBox="0 0 16 16" fill="none" xmlns="http://www.w3.org/2000/svg">
<g clip-path="url(#clip0_27_30595)">
<rect width="15.5472" height="15.8559" transform="translate(0.296875 0.148438)" fill="white"/>
<path d="M15.8441 8.26266C15.8441 7.72719 15.7922 7.17445 15.7059 6.65625H8.22656V9.71361H12.5103C12.3376 10.6982 11.7676 11.5618 10.9212 12.1146L13.4776 14.101C14.9804 12.7019 15.8441 10.6636 15.8441 8.26266Z" fill="#4280EF"/>
<path d="M8.22265 16.0044C10.3645 16.0044 12.1609 15.2962 13.4737 14.087L10.9173 12.1179C10.2091 12.6015 9.29359 12.8779 8.22265 12.8779C6.14986 12.8779 4.40526 11.4788 3.76615 9.61328L1.14062 11.6342C2.48794 14.3116 5.21711 16.0044 8.22265 16.0044Z" fill="#34A353"/>
<path d="M3.76447 9.60177C3.43628 8.61719 3.43628 7.54625 3.76447 6.56168L1.13894 4.52344C0.0161851 6.76896 0.0161851 9.41176 1.13894 11.64L3.76447 9.60177Z" fill="#F6B704"/>
<path d="M8.22265 3.29247C9.34541 3.27519 10.4509 3.70702 11.2627 4.48432L13.5255 2.20425C12.0919 0.856941 10.1918 0.131466 8.22265 0.148739C5.21711 0.148739 2.48794 1.84152 1.14062 4.51887L3.76615 6.55711C4.40526 4.67432 6.14986 3.29247 8.22265 3.29247Z" fill="#E54335"/>
</g>
<defs>
<clipPath id="clip0_27_30595">
<rect width="15.5472" height="15.8559" fill="white" transform="translate(0.296875 0.148438)"/>
</clipPath>
</defs>
</svg>
