<svg width="122" height="23" viewBox="0 0 122 23" fill="none" xmlns="http://www.w3.org/2000/svg">
<path d="M7.1218 1.83582L7.2428 1.87331C7.77552 2.06224 8.28228 2.31762 8.75107 2.63341C9.97192 3.44159 11.1051 4.3749 12.1323 5.41818L12.1153 5.45568C11.066 4.39045 9.90886 3.43718 8.66245 2.61126C8.18341 2.28927 7.6658 2.02875 7.1218 1.83582Z" fill="white"/>
<path d="M14.9988 9.23717V9.24739V9.25932V9.27125V9.28148V9.29341V9.30534V9.31727V9.3292C14.9048 9.08666 14.7908 8.85237 14.6579 8.62874C14.1466 7.74593 13.2502 6.61089 12.0708 5.43154L12.0879 5.39404C13.2417 6.54954 14.133 7.66072 14.6221 8.52478C14.7679 8.751 14.8939 8.98934 14.9988 9.23717Z" fill="white"/>
<path d="M6.74701 2.39104L6.7044 2.27344C6.51693 1.76216 6.5459 1.42131 6.83393 1.2969C7.24125 1.12647 8.08827 1.4571 9.12787 2.12176C10.3751 2.94662 11.5323 3.89997 12.5807 4.96619L12.5023 5.02754C11.4755 3.98385 10.3422 3.0505 9.12105 2.24277C8.09849 1.59174 7.27363 1.27133 6.87483 1.43494C6.58681 1.54913 6.56295 1.88998 6.74701 2.39104Z" fill="white"/>
<path d="M14.6224 9.79302H14.6105H14.5986H14.5866H14.5747H14.5628H14.5509H14.5389H14.527C14.7612 9.88939 15.0206 9.90557 15.2649 9.83903C15.6637 9.66861 15.5564 9.06018 15.0621 8.19612C14.5679 7.33206 13.6817 6.22087 12.5262 5.06538L12.6046 5.00403C13.7601 6.151 14.6616 7.28093 15.1678 8.16203C15.674 9.04314 15.7847 9.67372 15.3774 9.84074C15.1272 9.90716 14.8623 9.89041 14.6224 9.79302Z" fill="white"/>
<path d="M15.0041 10.1027L14.6633 10.4589C14.6256 10.4974 14.5803 10.5275 14.5303 10.5475C14.1315 10.7179 13.3015 10.3907 12.2841 9.73969C11.0641 8.93176 9.93201 7.99842 8.90624 6.95492C7.75075 5.79943 6.86112 4.68824 6.3703 3.82418C5.94082 3.0743 5.80277 2.51189 6.02944 2.26989L6.3703 1.9137C6.14022 2.15741 6.27826 2.71981 6.71115 3.46799C7.20709 4.33205 8.0916 5.44494 9.2471 6.60043C10.2731 7.64463 11.4052 8.57907 12.625 9.38861C13.6475 10.0379 14.4724 10.3583 14.8712 10.1964C14.9216 10.1749 14.9669 10.1429 15.0041 10.1027Z" fill="white"/>
<path d="M15.7114 9.35796L15.3706 9.71245C15.3337 9.75181 15.2882 9.78214 15.2376 9.80107C14.8388 9.9715 14.0106 9.64428 12.9914 8.99495C11.7722 8.18595 10.6402 7.2527 9.61355 6.21018C8.46147 5.05469 7.57525 3.93498 7.07931 3.08285C6.64983 2.33468 6.51179 1.77227 6.73846 1.52856L7.07931 1.17407C6.84753 1.41608 6.98558 1.97849 7.42016 2.72836C7.91099 3.59413 8.80232 4.6985 9.951 5.85399C10.9778 6.89768 12.1111 7.83102 13.3323 8.63876C14.3548 9.28979 15.1797 9.61019 15.5785 9.44658C15.6285 9.42661 15.6738 9.39643 15.7114 9.35796Z" fill="white"/>
<path d="M12.8395 4.67319C13.995 5.82868 14.8846 6.93986 15.3737 7.80393C15.8629 8.66799 15.9771 9.28323 15.5783 9.44684C15.1795 9.61045 14.3495 9.29005 13.332 8.63902C12.1109 7.83128 10.9776 6.89794 9.95077 5.85425C8.80209 4.69875 7.91076 3.59439 7.41482 2.72351C6.91888 1.85263 6.81321 1.2425 7.21201 1.08059C7.61081 0.918689 8.43908 1.23739 9.45823 1.88671C10.679 2.69564 11.8122 3.6295 12.8395 4.67319Z" fill="white"/>
<path d="M15.5119 9.74992L15.0466 10.2408C15.0088 10.2802 14.9628 10.311 14.912 10.3311C14.5047 10.5015 13.6577 10.1709 12.6181 9.50792C11.3716 8.68145 10.2144 7.72762 9.16522 6.66179C7.98587 5.48244 7.08261 4.3474 6.57644 3.46459C6.13844 2.70107 5.99699 2.12674 6.23558 1.87791L6.69915 1.38708C6.46396 1.63591 6.60541 2.21025 7.04 2.97546C7.55128 3.85657 8.44943 4.99331 9.62878 6.17267C10.6781 7.23799 11.8359 8.19074 13.0833 9.01538C14.1229 9.68005 14.97 10.0073 15.3773 9.84025C15.4279 9.81968 15.4737 9.78893 15.5119 9.74992Z" fill="white"/>
<path d="M3.3963 17.1776L3.51901 17.1129C3.56745 17.0869 3.61755 17.0641 3.66898 17.0447C4.19049 16.8368 5.25907 16.6612 6.74859 16.5692C8.26348 16.4789 9.7824 16.4789 11.2973 16.5692C12.7272 16.6544 13.9576 16.8197 14.6513 17.043L14.7638 17.1061C14.0548 16.8777 12.7987 16.7175 11.3382 16.6203C9.79149 16.5292 8.24076 16.5292 6.69406 16.6203C5.17385 16.7175 4.08312 16.8879 3.54798 17.1078C3.49609 17.1281 3.44545 17.1514 3.3963 17.1776Z" fill="white"/>
<path d="M14.9953 17.1849L15.1163 17.2514C15.0044 17.1928 14.8875 17.1443 14.7669 17.1065L14.6544 17.0435C14.7721 17.0801 14.8862 17.1275 14.9953 17.1849Z" fill="white"/>
<path d="M3.51876 17.0266L3.39776 16.9618C3.0569 16.776 3.1336 16.5869 3.55625 16.4199C4.08628 16.2068 5.17701 16.0364 6.69892 15.9341C8.2456 15.8421 9.79637 15.8421 11.343 15.9341C12.8036 16.0211 14.0596 16.1898 14.7652 16.4182L14.6527 16.4948C13.9591 16.2716 12.7218 16.1063 11.2987 16.0211C9.78385 15.9307 8.26493 15.9307 6.75005 16.0211C5.26052 16.1148 4.19365 16.2886 3.67044 16.4965C3.2563 16.6602 3.17791 16.8459 3.51876 17.0266Z" fill="white"/>
<path d="M15.1076 17.0345L15.0412 17.0686L14.9866 17.0976C15.3479 16.9067 15.2627 16.6937 14.6458 16.4943L14.7583 16.4176C15.3957 16.6221 15.4826 16.8386 15.1076 17.0345Z" fill="white"/>
<path d="M15.203 17.4163V17.9105C15.203 18.0128 15.0769 18.1151 14.8383 18.2088C14.3168 18.4167 13.2482 18.5922 11.7587 18.6843C10.2438 18.7737 8.72493 18.7737 7.21002 18.6843C5.77843 18.6042 4.54113 18.4389 3.85943 18.2156C3.47767 18.0929 3.29872 17.9668 3.30043 17.8424V17.343C3.30043 17.4674 3.47085 17.5952 3.85431 17.7163C4.54795 17.9412 5.77673 18.1048 7.20831 18.1917C8.72322 18.2812 10.2421 18.2812 11.757 18.1917C13.2465 18.0997 14.3134 17.9242 14.8366 17.7163C15.0786 17.6208 15.203 17.5203 15.203 17.4163Z" fill="white"/>
<path d="M15.2104 16.3772V16.8766C15.2104 16.9805 15.086 17.0811 14.8474 17.1748C14.3259 17.3827 13.2573 17.5583 11.7678 17.652C10.2528 17.7406 8.73401 17.7406 7.21907 17.652C5.78579 17.5583 4.55531 17.3998 3.85996 17.168C3.48503 17.047 3.30608 16.9192 3.30778 16.7948V16.2971C3.30949 16.4198 3.48843 16.5476 3.85996 16.6704C4.55701 16.8885 5.78749 17.0589 7.21737 17.1441C8.73228 17.2336 10.2511 17.2336 11.7661 17.1441C13.2573 17.0504 14.3225 16.8766 14.8474 16.6686C15.086 16.5732 15.2104 16.4727 15.2104 16.3772Z" fill="white"/>
<path d="M14.6543 15.9952C15.3463 16.2202 15.3701 16.4605 14.8469 16.6684C14.3237 16.8763 13.2568 17.0587 11.7656 17.1439C10.2507 17.2334 8.73183 17.2334 7.21692 17.1439C5.78704 17.0587 4.55656 16.8883 3.85952 16.6701C3.16247 16.452 3.15054 16.2066 3.67205 15.9969C4.19355 15.7873 5.26383 15.6152 6.75677 15.5248C8.2717 15.4362 9.79052 15.4362 11.3055 15.5248C12.7319 15.6067 13.9624 15.772 14.6543 15.9952Z" fill="white"/>
<path d="M15.3328 16.7994V17.4811C15.3328 17.585 15.205 17.689 14.963 17.7861C14.4295 17.9975 13.3388 18.1764 11.8169 18.2702C10.2702 18.3613 8.71945 18.3613 7.17275 18.2702C5.71219 18.1815 4.45615 18.0145 3.75058 17.7844C3.3586 17.6685 3.17795 17.539 3.17795 17.4129V16.7312C3.17795 16.8573 3.3586 16.9868 3.74376 17.113C4.45104 17.3413 5.70708 17.5101 7.16764 17.597C8.71436 17.6873 10.265 17.6873 11.8118 17.597C13.332 17.5015 14.4227 17.3226 14.9561 17.1113C15.205 17.0073 15.3328 16.905 15.3328 16.7994Z" fill="white"/>
<path d="M14.9587 13.3722L15.0524 13.4625C14.6497 13.1139 14.202 12.821 13.7214 12.5916L13.6549 12.52C14.1251 12.7455 14.5634 13.032 14.9587 13.3722Z" fill="white"/>
<path d="M4.29144 10.2805L4.41926 10.2566C4.79819 10.199 5.18255 10.1858 5.56453 10.2174C6.94534 10.3349 8.31032 10.5948 9.63773 10.9928C11.0225 11.375 12.3676 11.8886 13.6547 12.5267L13.7212 12.5983C12.4072 11.9471 11.0342 11.4226 9.62069 11.032C8.26734 10.6278 6.87626 10.3629 5.46909 10.2413C5.07636 10.2082 4.6811 10.2213 4.29144 10.2805Z" fill="white"/>
<path d="M14.9669 13.7555L14.8391 13.7793C15.2141 13.7095 15.4084 13.5731 15.422 13.3857C15.4441 13.0567 14.9107 12.5693 13.808 12.0001L13.9154 11.9456C15.0385 12.5267 15.5856 13.0244 15.5634 13.3601C15.5481 13.5459 15.3504 13.6839 14.9669 13.7555Z" fill="white"/>
<path d="M4.30016 10.6622L4.20131 10.5821C3.98146 10.3724 3.8758 10.1884 3.88602 10.0384C3.90818 9.69756 4.49956 9.52713 5.65676 9.597C7.06408 9.71752 8.45527 9.98251 9.80835 10.3878C11.224 10.7749 12.5993 11.2965 13.9156 11.9455L13.81 12.0068C12.5229 11.3688 11.1778 10.8551 9.79301 10.473C8.46782 10.0754 7.10515 9.81554 5.72663 9.69756C4.595 9.63109 4.02236 9.79981 3.99339 10.1304C3.98146 10.277 4.08542 10.4577 4.30016 10.6622Z" fill="white"/>
<path d="M15.2566 13.9653L15.1169 14.4374C15.0316 14.7271 14.4556 14.8736 13.3938 14.8106C12.0153 14.6926 10.6527 14.4327 9.32746 14.0351C7.94276 13.6527 6.59769 13.1391 5.3105 12.5013C4.21125 11.9457 3.67611 11.4515 3.69826 11.1226C3.69808 11.1022 3.70155 11.082 3.70849 11.0629L3.84824 10.5908C3.84222 10.6102 3.83878 10.6302 3.83801 10.6505C3.81586 10.9794 4.34929 11.4668 5.45025 12.036C6.7382 12.6721 8.08311 13.1856 9.46721 13.5699C10.7931 13.9621 12.1556 14.2174 13.5336 14.3317C14.597 14.3999 15.1714 14.255 15.2566 13.9653Z" fill="white"/>
<path d="M15.5512 12.9678L15.4115 13.4399C15.3246 13.7296 14.7485 13.8745 13.6868 13.8115C12.3086 13.6947 10.9461 13.4371 9.62039 13.0428C8.23673 12.6589 6.89236 12.1454 5.60514 11.509C4.50589 10.9398 3.96904 10.4523 3.9912 10.1234C3.99307 10.1055 3.99649 10.0879 4.00142 10.0706L4.14117 9.5968C4.136 9.61634 4.13258 9.6363 4.13095 9.65645C4.10879 9.98537 4.64223 10.4728 5.74489 11.042C7.0318 11.6791 8.37624 12.1927 9.76014 12.5759C11.0856 12.9719 12.4482 13.2311 13.8265 13.3496C14.8883 13.4075 15.4643 13.261 15.5512 12.9678Z" fill="white"/>
<path d="M13.9476 11.528C15.0468 12.0955 15.5837 12.5846 15.5615 12.9135C15.5394 13.2424 14.9599 13.4112 13.8266 13.3447C12.4483 13.2262 11.0857 12.967 9.76019 12.571C8.37629 12.1878 7.03185 11.6742 5.74494 11.0371C4.64569 10.4679 4.10884 9.98048 4.131 9.65155C4.15315 9.32263 4.73261 9.15732 5.86424 9.21867C7.24259 9.33683 8.60519 9.5961 9.93062 9.99241C11.3152 10.3758 12.6603 10.89 13.9476 11.528Z" fill="white"/>
<path d="M15.5497 13.4144L15.3571 14.0671C15.2702 14.362 14.6754 14.5103 13.5983 14.4472C12.4411 14.379 10.9397 14.0808 9.44504 13.6564C8.03228 13.2665 6.65939 12.7444 5.34457 12.097C4.22316 11.5159 3.67609 11.0165 3.69825 10.6808C3.69902 10.6605 3.70245 10.6405 3.70847 10.6211L3.90106 9.96838C3.89572 9.98847 3.89229 10.009 3.89083 10.0297C3.86867 10.3706 4.41574 10.8631 5.53886 11.4443C6.85312 12.093 8.22613 12.6151 9.63932 13.0037C10.9924 13.4091 12.3836 13.6741 13.7909 13.7945C14.8748 13.8592 15.4628 13.7092 15.5497 13.4144Z" fill="white"/>
<path d="M29.9633 8.56054C30.9988 9.1712 31.7621 9.77522 32.2533 10.3726C32.7445 10.9567 32.9901 11.6537 32.9901 12.4635C32.9901 13.1936 32.791 13.8839 32.3927 14.5344C32.0077 15.1849 31.4236 15.7093 30.6404 16.1075C29.8704 16.5058 28.9345 16.7049 27.8327 16.7049C27.2884 16.7049 26.7707 16.6584 26.2795 16.5655C25.8016 16.4859 25.1909 16.3597 24.4475 16.1872C24.2749 16.1473 23.9829 16.0876 23.5713 16.0079C23.1731 15.915 22.808 15.842 22.4761 15.7889L22.1376 9.65574L22.277 9.63583C23.0071 11.0961 23.8899 12.271 24.9254 13.1604C25.9609 14.0498 26.9565 14.6804 27.9123 15.0521C28.8814 15.4106 29.6846 15.5898 30.3218 15.5898C30.7333 15.5898 31.0254 15.5168 31.1979 15.3707C31.3838 15.2247 31.4767 15.0389 31.4767 14.8132C31.4767 14.468 31.271 14.1428 30.8594 13.8374C30.4612 13.5321 29.7908 13.1073 28.8482 12.563L27.9522 12.0453L25.6423 10.6315C24.9918 10.2465 24.4541 9.88142 24.0293 9.53627C23.6045 9.17784 23.2594 8.75303 22.9938 8.26184C22.7283 7.77066 22.5956 7.19319 22.5956 6.52942C22.5956 5.16207 23.0536 4.16643 23.9696 3.54249C24.8988 2.91856 26.1268 2.60659 27.6535 2.60659C28.3039 2.60659 28.908 2.68624 29.4655 2.84554C30.0231 2.99157 30.501 3.1907 30.8993 3.44293L32.1737 2.64642H32.2732V8.42115H32.1538C31.0386 6.92104 29.8439 5.72627 28.5694 4.83683C27.295 3.94739 26.1534 3.50267 25.1444 3.50267C24.8258 3.50267 24.5802 3.57568 24.4077 3.72171C24.2351 3.85446 24.1488 4.04032 24.1488 4.27927C24.1488 4.54478 24.255 4.80364 24.4674 5.05587C24.6931 5.29483 25.005 5.54042 25.4033 5.79265C25.8016 6.04488 26.5251 6.48296 27.5738 7.1069L29.9633 8.56054ZM43.7468 13.479C41.8484 15.5632 40.5806 16.6053 39.9434 16.6053C38.8814 16.6053 37.919 16.3863 37.0561 15.9482C36.1932 15.4969 35.5161 14.8663 35.025 14.0565C34.5338 13.2334 34.2882 12.271 34.2882 11.1691C34.2882 9.74867 34.6333 8.607 35.3236 7.74411C36.014 6.88122 36.7839 6.27719 37.6335 5.93204C38.4964 5.58688 39.2 5.4143 39.7443 5.4143C40.9391 5.4143 41.8617 5.74619 42.5122 6.40995C43.1627 7.06043 43.5277 7.91669 43.6074 8.97871C43.6074 9.15128 43.3817 9.3836 42.9304 9.67566C42.479 9.95444 41.9679 10.2067 41.3971 10.4323C40.8262 10.6447 40.4014 10.751 40.1226 10.751H37.5738C37.9853 11.6802 38.5495 12.4435 39.2664 13.0409C39.9833 13.6383 40.8196 13.937 41.7754 13.937C42.0675 13.937 42.3529 13.8972 42.6317 13.8175C42.9237 13.7246 43.2622 13.5786 43.6472 13.3794L43.7468 13.479ZM38.0517 6.3303C37.7464 6.3303 37.4875 6.48296 37.2751 6.78829C37.076 7.09362 36.9764 7.53171 36.9764 8.10254C36.9764 8.8194 37.1291 9.58273 37.4344 10.3925H40.043C40.0297 9.63583 39.9302 8.95216 39.7443 8.3415C39.5717 7.71756 39.3328 7.22637 39.0274 6.86794C38.7354 6.50951 38.4101 6.3303 38.0517 6.3303ZM55.0601 15.4106L55.996 16.1872V16.3066H50.6394V16.1872L51.5554 15.4106V9.15792C51.5554 8.29503 51.197 7.86359 50.4801 7.86359C50.0155 7.86359 49.6239 8.08927 49.3053 8.54062V15.4106L50.2213 16.1872V16.3066H44.8647V16.1872L45.8006 15.4106V7.96315L44.3071 8.69993L44.2275 8.60036L44.6457 8.00298C45.0837 7.37904 45.4355 6.90777 45.701 6.58916C45.9665 6.25728 46.252 5.98514 46.5573 5.77274C46.8626 5.56033 47.1812 5.45413 47.5131 5.45413C47.991 5.45413 48.3627 5.62007 48.6282 5.95195C48.907 6.28383 49.0464 6.85467 49.0464 7.66446C49.0464 7.92996 49.0398 8.14237 49.0265 8.30167H49.0464C50.4403 6.39003 51.4426 5.43422 52.0532 5.43422C53.102 5.43422 53.872 5.75946 54.3631 6.40995C54.8543 7.04716 55.0999 7.8835 55.0999 8.91897L55.0601 15.4106ZM68.0763 13.3396L68.1559 13.4392C67.917 13.7843 67.7842 13.9768 67.7577 14.0167C67.1204 14.9327 66.5961 15.5964 66.1845 16.0079C65.7863 16.4062 65.3416 16.6053 64.8504 16.6053C64.3459 16.6053 63.9543 16.4195 63.6755 16.0478C63.3967 15.6761 63.2773 15.0256 63.3171 14.0963H63.2972V14.1162C62.6334 14.8596 62.0626 15.4637 61.5847 15.9283C61.1068 16.3797 60.8081 16.5987 60.6886 16.5854C59.4142 16.4261 58.4716 15.9084 57.861 15.0322C57.2503 14.1428 56.945 13.0011 56.945 11.6072C56.945 10.0806 57.2569 8.8725 57.8809 7.98306C58.5181 7.09362 59.2349 6.48296 60.0315 6.15108C60.828 5.8192 61.5117 5.65326 62.0825 5.65326C62.4675 5.65326 62.7927 5.67981 63.0582 5.73291V2.82563L61.8236 2.38755V2.26807L66.4633 0.854259H66.4832L66.6027 0.814432V14.0764L68.0763 13.3396ZM60.4297 9.51635C60.4297 11.0696 60.5492 12.2643 60.7882 13.1007C61.0404 13.9237 61.4586 14.3353 62.0427 14.3353C62.1887 14.3353 62.3546 14.3021 62.5405 14.2357C62.7396 14.1561 62.9122 14.0498 63.0582 13.9171V7.92332C62.9786 7.29939 62.8193 6.85467 62.5803 6.58916C62.3546 6.31038 62.0958 6.17099 61.8037 6.17099C61.3789 6.17099 61.0404 6.41659 60.7882 6.90777C60.5492 7.38568 60.4297 8.25521 60.4297 9.51635ZM75.7461 16.5257C74.4717 16.4726 73.3168 16.1606 72.2813 15.5898C71.2458 15.0057 70.4294 14.1892 69.832 13.1405C69.2479 12.0918 68.9558 10.8638 68.9558 9.45662C68.9558 7.77066 69.3607 6.41658 70.1705 5.39439C70.9803 4.35892 71.8897 3.63542 72.8986 3.22389C73.9208 2.79908 74.7638 2.58668 75.4275 2.58668C76.5957 2.58668 77.6312 2.82563 78.5339 3.30354C79.4366 3.76817 80.0672 4.33901 80.4257 5.01605L77.1599 8.22202L77.0405 8.18219C76.5493 6.44314 75.9585 5.24173 75.2682 4.57796C74.5779 3.90093 73.9341 3.56241 73.3367 3.56241C72.9119 3.56241 72.5534 3.7549 72.2614 4.13988C71.9693 4.52486 71.8167 5.10897 71.8034 5.89221C71.8034 6.96751 72.0357 8.10254 72.5003 9.29731C72.965 10.4921 73.6951 11.5076 74.6907 12.344C75.6864 13.1803 76.921 13.5985 78.3945 13.5985C78.9521 13.5985 79.5694 13.479 80.2464 13.2401L80.3261 13.3595C79.5827 13.9835 78.6866 14.6671 77.6379 15.4106C76.5891 16.154 75.9585 16.5257 75.7461 16.5257ZM86.426 16.6053C85.4038 16.6053 84.5011 16.3664 83.7178 15.8885C82.9346 15.3973 82.3305 14.7402 81.9057 13.9171C81.4809 13.094 81.2685 12.198 81.2685 11.2289C81.2685 9.76858 81.607 8.607 82.2841 7.74411C82.9744 6.88122 83.7244 6.28383 84.5342 5.95195C85.344 5.6068 85.9613 5.43422 86.3861 5.43422C87.4083 5.43422 88.311 5.67981 89.0943 6.17099C89.8908 6.6489 90.5015 7.30603 90.9263 8.14237C91.3511 8.96543 91.5635 9.87479 91.5635 10.8704C91.5635 12.3174 91.2183 13.4657 90.528 14.3154C89.851 15.165 89.1009 15.7624 88.2779 16.1075C87.4681 16.4394 86.8508 16.6053 86.426 16.6053ZM88.1982 15.6296C88.5301 15.4969 88.696 15.0986 88.696 14.4348C88.696 13.6118 88.4106 12.3639 87.8398 10.6912C86.8176 7.79721 85.8485 6.35021 84.9325 6.35021C84.3882 6.35021 84.1161 6.78165 84.1161 7.64454C84.1161 8.50744 84.3882 9.7354 84.9325 11.3284C85.437 12.7754 85.9348 13.864 86.426 14.5941C86.9304 15.311 87.4216 15.6694 87.8995 15.6694C87.9659 15.6694 88.0655 15.6562 88.1982 15.6296ZM93.3013 15.4106L93.3213 6.66881L92.4053 5.83247V5.713H96.8458V6.66881L96.806 15.4106L97.722 16.1872V16.3066H92.3654V16.1872L93.3013 15.4106ZM95.0338 4.49831C94.5027 4.49831 94.0713 4.35228 93.7394 4.06023C93.4208 3.7549 93.2615 3.35664 93.2615 2.86546C93.2615 2.38755 93.4208 2.00257 93.7394 1.71051C94.0713 1.41846 94.5027 1.27243 95.0338 1.27243C95.5382 1.27243 95.9431 1.41846 96.2484 1.71051C96.567 2.00257 96.7264 2.38755 96.7264 2.86546C96.7264 3.35664 96.567 3.7549 96.2484 4.06023C95.9431 4.35228 95.5382 4.49831 95.0338 4.49831ZM109.187 15.4106L110.122 16.1872V16.3066H104.766V16.1872L105.682 15.4106V9.15792C105.682 8.29503 105.323 7.86359 104.607 7.86359C104.142 7.86359 103.75 8.08927 103.432 8.54062V15.4106L104.348 16.1872V16.3066H98.9911V16.1872L99.927 15.4106V7.96315L98.4336 8.69993L98.3539 8.60036L98.7721 8.00298C99.2102 7.37904 99.562 6.90777 99.8275 6.58916C100.093 6.25728 100.378 5.98514 100.684 5.77274C100.989 5.56033 101.308 5.45413 101.64 5.45413C102.117 5.45413 102.489 5.62007 102.755 5.95195C103.033 6.28383 103.173 6.85467 103.173 7.66446C103.173 7.92996 103.166 8.14237 103.153 8.30167H103.173C104.567 6.39003 105.569 5.43422 106.18 5.43422C107.228 5.43422 107.998 5.75946 108.49 6.40995C108.981 7.04716 109.226 7.8835 109.226 8.91897L109.187 15.4106ZM117.324 9.81505C117.948 10.2399 118.426 10.5983 118.758 10.8903C119.103 11.1691 119.388 11.501 119.614 11.886C119.84 12.2577 119.953 12.6958 119.953 13.2002C119.953 13.7312 119.82 14.2556 119.554 14.7734C119.289 15.2778 118.837 15.7026 118.2 16.0478C117.563 16.3929 116.733 16.5655 115.711 16.5655C115.339 16.5655 115.008 16.5456 114.715 16.5058C114.437 16.4659 114.085 16.3996 113.66 16.3066C113.554 16.2934 113.361 16.2602 113.083 16.2071C112.804 16.154 112.532 16.1274 112.266 16.1274C112.067 16.1274 111.848 16.1473 111.609 16.1872L111.191 10.6315H111.31C111.828 11.6271 112.472 12.5298 113.242 13.3396C114.012 14.1361 114.775 14.7601 115.532 15.2114C116.302 15.6628 116.946 15.8885 117.463 15.8885C117.649 15.8885 117.802 15.842 117.921 15.7491C118.041 15.6429 118.101 15.4836 118.101 15.2712C118.101 15.0455 117.961 14.7999 117.682 14.5344C117.417 14.2556 116.913 13.8773 116.169 13.3994L113.839 11.8462C113.096 11.355 112.545 10.8704 112.187 10.3925C111.828 9.90134 111.649 9.33714 111.649 8.69993C111.649 7.70428 112.014 6.90777 112.744 6.31038C113.474 5.69972 114.423 5.39439 115.592 5.39439C116.654 5.39439 117.583 5.62007 118.379 6.07143L119.315 5.29483H119.435V10.4124H119.295C118.685 9.44334 118.054 8.63355 117.404 7.98306C116.753 7.3193 116.143 6.82812 115.572 6.50951C115.014 6.19091 114.55 6.0316 114.178 6.0316C113.74 6.0316 113.521 6.21082 113.521 6.56925C113.521 6.79493 113.62 7.02061 113.819 7.24629C114.032 7.45869 114.357 7.71092 114.795 8.00298L117.324 9.81505Z" fill="white"/>
</svg>
