<svg width="122" height="22" viewBox="0 0 122 22" fill="none" xmlns="http://www.w3.org/2000/svg">
<g clip-path="url(#clip0_979_3066)">
<path d="M6.99609 1.52734L7.1171 1.56484C7.64982 1.75376 8.15658 2.00915 8.62537 2.32494C9.84621 3.13312 10.9794 4.06643 12.0066 5.10971L11.9896 5.14721C10.9403 4.08198 9.78316 3.12871 8.53675 2.30279C8.05771 1.98079 7.5401 1.72027 6.99609 1.52734Z" fill="#262626"/>
<path d="M14.8732 8.92906V8.93928V8.95122V8.96315V8.97337V8.9853V8.99723V9.00916V9.02109C14.7792 8.77856 14.6652 8.54427 14.5324 8.32064C14.0211 7.43783 13.1247 6.30278 11.9453 5.12343L11.9624 5.08594C13.1161 6.24143 14.0075 7.35261 14.4966 8.21668C14.6423 8.4429 14.7684 8.68124 14.8732 8.92906Z" fill="#262626"/>
<path d="M6.62207 2.08281L6.57946 1.96522C6.39199 1.45394 6.42097 1.11308 6.70899 0.988671C7.11631 0.818244 7.96333 1.14887 9.00293 1.81354C10.2501 2.63839 11.4074 3.59175 12.4558 4.65796L12.3774 4.71931C11.3505 3.67562 10.2173 2.74228 8.99611 1.93454C7.97355 1.28351 7.14869 0.963107 6.74989 1.12672C6.46187 1.2409 6.43801 1.58176 6.62207 2.08281Z" fill="#262626"/>
<path d="M14.4966 9.48528H14.4847H14.4728H14.4609H14.4489H14.437H14.4251H14.4131H14.4012C14.6354 9.58166 14.8948 9.59783 15.1391 9.53129C15.5379 9.36087 15.4306 8.75244 14.9363 7.88838C14.4421 7.02432 13.5559 5.91314 12.4004 4.75764L12.4788 4.69629C13.6343 5.84326 14.5358 6.97319 15.042 7.8543C15.5482 8.7354 15.6589 9.36598 15.2516 9.533C15.0015 9.59942 14.7365 9.58267 14.4966 9.48528Z" fill="#262626"/>
<path d="M14.8795 9.79447L14.5387 10.1507C14.501 10.1891 14.4557 10.2193 14.4057 10.2393C14.0069 10.4097 13.1769 10.0825 12.1595 9.43146C10.9395 8.62353 9.80741 7.6902 8.78164 6.64669C7.62615 5.4912 6.73652 4.38002 6.24569 3.51595C5.81622 2.76607 5.67817 2.20367 5.90484 1.96166L6.24569 1.60547C6.01562 1.84918 6.15366 2.41159 6.58655 3.15976C7.08249 4.02382 7.967 5.13671 9.12249 6.2922C10.1485 7.3364 11.2806 8.27084 12.5004 9.08038C13.5229 9.72971 14.3478 10.0501 14.7466 9.88821C14.797 9.86664 14.8423 9.83471 14.8795 9.79447Z" fill="#262626"/>
<path d="M15.5868 9.0501L15.2459 9.40459C15.209 9.44395 15.1635 9.47428 15.113 9.49321C14.7142 9.66364 13.8859 9.33642 12.8668 8.68709C11.6476 7.87809 10.5156 6.94484 9.48892 5.90232C8.33684 4.74683 7.45062 3.62712 6.95468 2.77499C6.5252 2.02682 6.38716 1.46441 6.61382 1.2207L6.95468 0.866211C6.7229 1.10822 6.86094 1.67062 7.29553 2.4205C7.78636 3.28627 8.67769 4.39064 9.82637 5.54613C10.8532 6.58982 11.9865 7.52316 13.2076 8.3309C14.2302 8.98193 15.0551 9.30233 15.4539 9.13872C15.5039 9.11875 15.5491 9.08857 15.5868 9.0501Z" fill="#262626"/>
<path d="M12.7133 4.36569C13.8688 5.52119 14.7584 6.63237 15.2476 7.49643C15.7367 8.3605 15.8509 8.97574 15.4521 9.13935C15.0533 9.30295 14.2233 8.98255 13.2058 8.33152C11.9847 7.52379 10.8514 6.59044 9.82458 5.54675C8.6759 4.39126 7.78457 3.28689 7.28863 2.41601C6.79268 1.54513 6.68702 0.935004 7.08582 0.773099C7.48462 0.611193 8.31289 0.929891 9.33204 1.57922C10.5528 2.38814 11.686 3.322 12.7133 4.36569Z" fill="#262626"/>
<path d="M15.3875 9.44194L14.9222 9.93277C14.8843 9.97217 14.8384 10.003 14.7876 10.0231C14.3803 10.1935 13.5332 9.8629 12.4936 9.19993C11.2472 8.37347 10.09 7.41963 9.0408 6.35381C7.86145 5.17446 6.95819 4.03941 6.45202 3.1566C6.01402 2.39309 5.87257 1.81875 6.11116 1.56993L6.57472 1.0791C6.33954 1.32792 6.48099 1.90226 6.91558 2.66748C7.42686 3.54858 8.32501 4.68533 9.50436 5.86468C10.5537 6.93001 11.7115 7.88275 12.9589 8.7074C13.9985 9.37207 14.8455 9.69928 15.2529 9.53227C15.3034 9.51169 15.3493 9.48095 15.3875 9.44194Z" fill="#262626"/>
<path d="M3.27148 16.8715L3.39419 16.8067C3.44264 16.7807 3.49274 16.758 3.54417 16.7386C4.06567 16.5306 5.13425 16.3551 6.62378 16.2631C8.13866 16.1727 9.65758 16.1727 11.1725 16.2631C12.6023 16.3483 13.8328 16.5136 14.5265 16.7369L14.6389 16.7999C13.93 16.5715 12.6739 16.4113 11.2134 16.3142C9.66667 16.223 8.11594 16.223 6.56924 16.3142C5.04903 16.4113 3.9583 16.5818 3.42316 16.8016C3.37128 16.8219 3.32063 16.8452 3.27148 16.8715Z" fill="#262626"/>
<path d="M14.8702 16.8778L14.9912 16.9442C14.8792 16.8857 14.7623 16.8372 14.6418 16.7994L14.5293 16.7363C14.647 16.773 14.7611 16.8203 14.8702 16.8778Z" fill="#262626"/>
<path d="M3.39342 16.7201L3.27242 16.6553C2.93157 16.4695 3.00826 16.2804 3.43092 16.1133C3.96095 15.9003 5.05168 15.7299 6.57359 15.6276C8.12026 15.5356 9.67104 15.5356 11.2177 15.6276C12.6783 15.7145 13.9343 15.8833 14.6399 16.1116L14.5274 16.1883C13.8338 15.9651 12.5965 15.7998 11.1734 15.7145C9.65852 15.6242 8.1396 15.6242 6.62471 15.7145C5.13519 15.8083 4.06831 15.9821 3.5451 16.19C3.13097 16.3536 3.05257 16.5394 3.39342 16.7201Z" fill="#262626"/>
<path d="M14.9833 16.7283L14.9169 16.7624L14.8623 16.7913C15.2236 16.6005 15.1384 16.3874 14.5215 16.188L14.634 16.1113C15.2714 16.3158 15.3583 16.5323 14.9833 16.7283Z" fill="#262626"/>
<path d="M15.0784 17.1094V17.6037C15.0784 17.7059 14.9523 17.8082 14.7137 17.9019C14.1922 18.1098 13.1236 18.2854 11.6341 18.3774C10.1192 18.4669 8.60029 18.4669 7.08538 18.3774C5.6538 18.2973 4.4165 18.132 3.73479 17.9087C3.35304 17.786 3.17409 17.6599 3.17579 17.5355V17.0361C3.17579 17.1605 3.34622 17.2884 3.72968 17.4094C4.42332 17.6343 5.65209 17.7979 7.08368 17.8849C8.59859 17.9743 10.1175 17.9743 11.6324 17.8849C13.1219 17.7928 14.1888 17.6173 14.712 17.4094C14.954 17.3139 15.0784 17.2134 15.0784 17.1094Z" fill="#262626"/>
<path d="M15.0862 16.0703V16.5697C15.0862 16.6736 14.9618 16.7742 14.7232 16.8679C14.2017 17.0759 13.1331 17.2514 11.6436 17.3451C10.1287 17.4338 8.60983 17.4338 7.0949 17.3451C5.66161 17.2514 4.43113 17.0929 3.73579 16.8611C3.36085 16.7401 3.1819 16.6123 3.18361 16.4879V15.9902C3.18531 16.1129 3.36426 16.2408 3.73579 16.3635C4.43283 16.5816 5.66331 16.752 7.09319 16.8373C8.6081 16.9267 10.127 16.9267 11.6419 16.8373C13.1331 16.7435 14.1983 16.5697 14.7232 16.3618C14.9618 16.2663 15.0862 16.1658 15.0862 16.0703Z" fill="#262626"/>
<path d="M14.5302 15.6882C15.2222 15.9132 15.246 16.1535 14.7228 16.3614C14.1996 16.5693 13.1327 16.7517 11.6415 16.8369C10.1266 16.9264 8.60772 16.9264 7.09281 16.8369C5.66293 16.7517 4.43245 16.5813 3.7354 16.3631C3.03836 16.145 3.02643 15.8995 3.54793 15.6899C4.06944 15.4803 5.13972 15.3082 6.63266 15.2178C8.14759 15.1292 9.66641 15.1292 11.1813 15.2178C12.6078 15.2996 13.8383 15.465 14.5302 15.6882Z" fill="#262626"/>
<path d="M15.2076 16.493V17.1747C15.2076 17.2786 15.0797 17.3826 14.8377 17.4797C14.3043 17.6911 13.2136 17.87 11.6917 17.9638C10.145 18.0549 8.59424 18.0549 7.04754 17.9638C5.58698 17.8751 4.33093 17.7081 3.62537 17.478C3.23339 17.3622 3.05273 17.2326 3.05273 17.1065V16.4248C3.05273 16.5509 3.23339 16.6804 3.61855 16.8066C4.32582 17.0349 5.58187 17.2037 7.04242 17.2906C8.58915 17.3809 10.1398 17.3809 11.6866 17.2906C13.2068 17.1951 14.2975 17.0162 14.8309 16.8049C15.0797 16.7009 15.2076 16.5986 15.2076 16.493Z" fill="#262626"/>
<path d="M14.8331 13.065L14.9268 13.1554C14.5241 12.8068 14.0764 12.5139 13.5958 12.2845L13.5293 12.2129C13.9995 12.4384 14.4378 12.7249 14.8331 13.065Z" fill="#262626"/>
<path d="M4.16602 9.97333L4.29384 9.94947C4.67276 9.89187 5.05712 9.87871 5.4391 9.91027C6.81992 10.0278 8.1849 10.2876 9.5123 10.6857C10.8971 11.0679 12.2422 11.5815 13.5293 12.2196L13.5957 12.2911C12.2818 11.6399 10.9088 11.1155 9.49526 10.7249C8.14191 10.3207 6.75084 10.0557 5.34366 9.93413C4.95093 9.90102 4.55567 9.91418 4.16602 9.97333Z" fill="#262626"/>
<path d="M14.8425 13.4486L14.7147 13.4725C15.0896 13.4026 15.2839 13.2662 15.2975 13.0788C15.3197 12.7499 14.7863 12.2624 13.6836 11.6932L13.791 11.6387C14.9141 12.2198 15.4611 12.7175 15.439 13.0532C15.4237 13.239 15.226 13.377 14.8425 13.4486Z" fill="#262626"/>
<path d="M4.17458 10.355L4.07573 10.2749C3.85588 10.0653 3.75022 9.88126 3.76044 9.73128C3.7826 9.39043 4.37398 9.22 5.53118 9.28987C6.9385 9.41039 8.32969 9.67538 9.68277 10.0807C11.0984 10.4678 12.4737 10.9894 13.7901 11.6384L13.6844 11.6997C12.3973 11.0616 11.0522 10.548 9.66743 10.1659C8.34224 9.76827 6.97957 9.50841 5.60105 9.39043C4.46942 9.32396 3.89678 9.49268 3.86781 9.82331C3.85588 9.96988 3.95984 10.1505 4.17458 10.355Z" fill="#262626"/>
<path d="M15.1313 13.6586L14.9915 14.1307C14.9063 14.4204 14.3303 14.567 13.2685 14.5039C11.89 14.386 10.5273 14.1261 9.20212 13.7285C7.81742 13.3461 6.47235 12.8325 5.18516 12.1947C4.08591 11.6391 3.55077 11.1448 3.57293 10.8159C3.57275 10.7956 3.57621 10.7754 3.58315 10.7563L3.7229 10.2842C3.71688 10.3035 3.71344 10.3236 3.71268 10.3438C3.69052 10.6728 4.22396 11.1602 5.32491 11.7294C6.61286 12.3654 7.95777 12.879 9.34187 13.2632C10.6677 13.6555 12.0303 13.9108 13.4083 14.025C14.4717 14.0932 15.0461 13.9484 15.1313 13.6586Z" fill="#262626"/>
<path d="M15.4259 12.6611L15.2862 13.1332C15.1993 13.4229 14.6232 13.5677 13.5615 13.5047C12.1833 13.3879 10.8208 13.1303 9.49509 12.7361C8.11142 12.3522 6.76705 11.8386 5.47983 11.2022C4.38058 10.633 3.84374 10.1456 3.86589 9.81666C3.86776 9.79878 3.87119 9.78111 3.87612 9.76383L4.01587 9.29004C4.0107 9.30958 4.00728 9.32954 4.00564 9.34969C3.98349 9.67861 4.51692 10.166 5.61958 10.7353C6.90649 11.3723 8.25093 11.8859 9.63484 12.2691C10.9603 12.6651 12.3229 12.9244 13.7012 13.0428C14.763 13.1008 15.339 12.9542 15.4259 12.6611Z" fill="#262626"/>
<path d="M13.8231 11.2213C14.9223 11.7888 15.4592 12.278 15.437 12.6069C15.4149 12.9358 14.8354 13.1045 13.7021 13.0381C12.3238 12.9196 10.9612 12.6603 9.63571 12.2643C8.25181 11.8811 6.90737 11.3676 5.62046 10.7305C4.52121 10.1613 3.98436 9.67384 4.00652 9.34491C4.02867 9.01599 4.60812 8.85068 5.73976 8.91203C7.11811 9.03019 8.48071 9.28946 9.80614 9.68577C11.1907 10.0692 12.5358 10.5834 13.8231 11.2213Z" fill="#262626"/>
<path d="M15.4244 13.1081L15.2318 13.7609C15.1449 14.0557 14.5501 14.204 13.473 14.1409C12.3158 14.0728 10.8143 13.7745 9.3197 13.3501C7.90695 12.9603 6.53406 12.4381 5.21923 11.7907C4.09783 11.2096 3.55076 10.7102 3.57291 10.3745C3.57368 10.3542 3.57712 10.3342 3.58314 10.3148L3.77572 9.66211C3.77038 9.68219 3.76696 9.70273 3.76549 9.72346C3.74334 10.0643 4.29041 10.5568 5.41352 11.138C6.72778 11.7867 8.10079 12.3089 9.51399 12.6974C10.867 13.1028 12.2582 13.3678 13.6656 13.4882C14.7495 13.553 15.3375 13.403 15.4244 13.1081Z" fill="#262626"/>
</g>
<path d="M29.8387 8.2539C30.8742 8.86456 31.6375 9.46858 32.1287 10.066C32.6198 10.6501 32.8654 11.347 32.8654 12.1568C32.8654 12.887 32.6663 13.5773 32.2681 14.2278C31.8831 14.8782 31.299 15.4026 30.5157 15.8009C29.7458 16.1991 28.8099 16.3983 27.708 16.3983C27.1637 16.3983 26.646 16.3518 26.1548 16.2589C25.6769 16.1792 25.0662 16.0531 24.3228 15.8805C24.1502 15.8407 23.8582 15.781 23.4467 15.7013C23.0484 15.6084 22.6833 15.5354 22.3514 15.4823L22.0129 9.3491L22.1523 9.32919C22.8825 10.7895 23.7653 11.9643 24.8007 12.8538C25.8362 13.7432 26.8318 14.3738 27.7877 14.7455C28.7568 15.1039 29.5599 15.2831 30.1971 15.2831C30.6086 15.2831 30.9007 15.2101 31.0733 15.0641C31.2591 14.9181 31.3521 14.7322 31.3521 14.5065C31.3521 14.1614 31.1463 13.8361 30.7348 13.5308C30.3365 13.2255 29.6661 12.8007 28.7236 12.2564L27.8275 11.7386L25.5176 10.3248C24.8671 9.93985 24.3295 9.57478 23.9047 9.22963C23.4798 8.87119 23.1347 8.44639 22.8692 7.9552C22.6037 7.46402 22.4709 6.88655 22.4709 6.22278C22.4709 4.85543 22.9289 3.85979 23.8449 3.23585C24.7742 2.61192 26.0021 2.29995 27.5288 2.29995C28.1793 2.29995 28.7833 2.3796 29.3409 2.5389C29.8984 2.68493 30.3763 2.88406 30.7746 3.13629L32.049 2.33978H32.1486V8.11451H32.0291C30.914 6.6144 29.7192 5.41963 28.4448 4.53019C27.1704 3.64075 26.0287 3.19603 25.0198 3.19603C24.7012 3.19603 24.4556 3.26904 24.283 3.41507C24.1104 3.54782 24.0241 3.73368 24.0241 3.97263C24.0241 4.23813 24.1303 4.497 24.3427 4.74923C24.5684 4.98819 24.8804 5.23378 25.2786 5.48601C25.6769 5.73824 26.4004 6.17632 27.4491 6.80026L29.8387 8.2539ZM43.6221 13.1724C41.7238 15.2566 40.456 16.2987 39.8188 16.2987C38.7567 16.2987 37.7943 16.0797 36.9314 15.6416C36.0685 15.1902 35.3915 14.5596 34.9003 13.7498C34.4091 12.9268 34.1635 11.9643 34.1635 10.8625C34.1635 9.44203 34.5087 8.30036 35.199 7.43747C35.8893 6.57458 36.6593 5.97055 37.5089 5.6254C38.3718 5.28024 39.0753 5.10766 39.6196 5.10766C40.8144 5.10766 41.737 5.43954 42.3875 6.10331C43.038 6.75379 43.4031 7.61005 43.4827 8.67207C43.4827 8.84464 43.2571 9.07696 42.8057 9.36902C42.3543 9.6478 41.8432 9.90003 41.2724 10.1257C40.7016 10.3381 40.2768 10.4443 39.998 10.4443H37.4491C37.8607 11.3736 38.4249 12.1369 39.1417 12.7343C39.8586 13.3317 40.6949 13.6304 41.6507 13.6304C41.9428 13.6304 42.2282 13.5905 42.507 13.5109C42.7991 13.418 43.1376 13.2719 43.5226 13.0728L43.6221 13.1724ZM37.927 6.02365C37.6217 6.02365 37.3628 6.17632 37.1504 6.48165C36.9513 6.78698 36.8517 7.22506 36.8517 7.7959C36.8517 8.51276 37.0044 9.27609 37.3097 10.0859H39.9183C39.9051 9.32919 39.8055 8.64552 39.6196 8.03485C39.4471 7.41092 39.2081 6.91973 38.9028 6.5613C38.6107 6.20287 38.2855 6.02365 37.927 6.02365ZM54.9354 15.1039L55.8713 15.8805V16H50.5148V15.8805L51.4308 15.1039V8.85128C51.4308 7.98839 51.0723 7.55695 50.3555 7.55695C49.8908 7.55695 49.4992 7.78262 49.1806 8.23398V15.1039L50.0966 15.8805V16H44.74V15.8805L45.6759 15.1039V7.65651L44.1825 8.39329L44.1028 8.29372L44.521 7.69634C44.9591 7.0724 45.3109 6.60113 45.5764 6.28252C45.8419 5.95064 46.1273 5.6785 46.4326 5.46609C46.738 5.25369 47.0566 5.14749 47.3885 5.14749C47.8664 5.14749 48.2381 5.31343 48.5036 5.64531C48.7824 5.97719 48.9217 6.54803 48.9217 7.35782C48.9217 7.62332 48.9151 7.83573 48.9018 7.99503H48.9217C50.3156 6.08339 51.3179 5.12758 51.9286 5.12758C52.9773 5.12758 53.7473 5.45282 54.2385 6.10331C54.7297 6.74052 54.9753 7.57686 54.9753 8.61233L54.9354 15.1039ZM67.9516 13.033L68.0312 13.1325C67.7923 13.4777 67.6595 13.6702 67.633 13.71C66.9958 14.626 66.4714 15.2898 66.0599 15.7013C65.6616 16.0996 65.2169 16.2987 64.7257 16.2987C64.2213 16.2987 63.8296 16.1128 63.5509 15.7411C63.2721 15.3694 63.1526 14.7189 63.1924 13.7897H63.1725V13.8096C62.5087 14.553 61.9379 15.157 61.46 15.6217C60.9821 16.073 60.6834 16.2921 60.5639 16.2788C59.2895 16.1195 58.347 15.6017 57.7363 14.7256C57.1256 13.8361 56.8203 12.6945 56.8203 11.3006C56.8203 9.77391 57.1323 8.56586 57.7562 7.67642C58.3934 6.78698 59.1103 6.17632 59.9068 5.84444C60.7033 5.51256 61.387 5.34662 61.9578 5.34662C62.3428 5.34662 62.668 5.37317 62.9336 5.42627V2.51899L61.699 2.08091V1.96143L66.3387 0.547618H66.3586L66.478 0.507792V13.7698L67.9516 13.033ZM60.3051 9.20971C60.3051 10.7629 60.4245 11.9577 60.6635 12.794C60.9157 13.6171 61.3339 14.0286 61.918 14.0286C62.064 14.0286 62.23 13.9954 62.4158 13.9291C62.6149 13.8494 62.7875 13.7432 62.9336 13.6105V7.61668C62.8539 6.99275 62.6946 6.54803 62.4556 6.28252C62.23 6.00374 61.9711 5.86435 61.679 5.86435C61.2542 5.86435 60.9157 6.10994 60.6635 6.60113C60.4245 7.07904 60.3051 7.94857 60.3051 9.20971ZM75.6215 16.219C74.347 16.1659 73.1921 15.854 72.1566 15.2831C71.1212 14.699 70.3047 13.8826 69.7073 12.8339C69.1232 11.7851 68.8312 10.5572 68.8312 9.14997C68.8312 7.46402 69.2361 6.10994 70.0459 5.08775C70.8557 4.05228 71.765 3.32878 72.7739 2.91725C73.7961 2.49244 74.6391 2.28004 75.3029 2.28004C76.4711 2.28004 77.5066 2.51899 78.4093 2.9969C79.312 3.46153 79.9426 4.03237 80.301 4.70941L77.0353 7.91538L76.9158 7.87555C76.4246 6.13649 75.8339 4.93509 75.1436 4.27132C74.4532 3.59429 73.8094 3.25577 73.212 3.25577C72.7872 3.25577 72.4288 3.44826 72.1367 3.83324C71.8447 4.21822 71.692 4.80233 71.6787 5.58557C71.6787 6.66087 71.911 7.7959 72.3757 8.99067C72.8403 10.1854 73.5704 11.201 74.5661 12.0373C75.5617 12.8737 76.7963 13.2919 78.2699 13.2919C78.8274 13.2919 79.4447 13.1724 80.1218 12.9334L80.2014 13.0529C79.458 13.6768 78.5619 14.3605 77.5132 15.1039C76.4644 15.8473 75.8339 16.219 75.6215 16.219ZM86.3013 16.2987C85.2791 16.2987 84.3764 16.0597 83.5931 15.5818C82.8099 15.0906 82.2059 14.4335 81.7811 13.6105C81.3563 12.7874 81.1439 11.8913 81.1439 10.9222C81.1439 9.46194 81.4824 8.30036 82.1594 7.43747C82.8497 6.57458 83.5998 5.97719 84.4096 5.64531C85.2194 5.30015 85.8367 5.12758 86.2615 5.12758C87.2837 5.12758 88.1864 5.37317 88.9696 5.86435C89.7661 6.34226 90.3768 6.99939 90.8016 7.83573C91.2264 8.65879 91.4388 9.56815 91.4388 10.5638C91.4388 12.0108 91.0937 13.1591 90.4033 14.0087C89.7263 14.8583 88.9763 15.4557 88.1532 15.8009C87.3434 16.1328 86.7261 16.2987 86.3013 16.2987ZM88.0735 15.323C88.4054 15.1902 88.5714 14.792 88.5714 14.1282C88.5714 13.3051 88.2859 12.0573 87.7151 10.3846C86.6929 7.49057 85.7238 6.04357 84.8078 6.04357C84.2635 6.04357 83.9914 6.47501 83.9914 7.3379C83.9914 8.2008 84.2635 9.42876 84.8078 11.0218C85.3123 12.4688 85.8101 13.5574 86.3013 14.2875C86.8058 15.0044 87.2969 15.3628 87.7748 15.3628C87.8412 15.3628 87.9408 15.3495 88.0735 15.323ZM93.1767 15.1039L93.1966 6.36217L92.2806 5.52583V5.40636H96.7212V6.36217L96.6813 15.1039L97.5973 15.8805V16H92.2408V15.8805L93.1767 15.1039ZM94.9091 4.19167C94.3781 4.19167 93.9466 4.04564 93.6148 3.75359C93.2962 3.44826 93.1369 3.05 93.1369 2.55882C93.1369 2.08091 93.2962 1.69593 93.6148 1.40387C93.9466 1.11182 94.3781 0.965788 94.9091 0.965788C95.4136 0.965788 95.8184 1.11182 96.1238 1.40387C96.4424 1.69593 96.6017 2.08091 96.6017 2.55882C96.6017 3.05 96.4424 3.44826 96.1238 3.75359C95.8184 4.04564 95.4136 4.19167 94.9091 4.19167ZM109.062 15.1039L109.998 15.8805V16H104.641V15.8805L105.557 15.1039V8.85128C105.557 7.98839 105.199 7.55695 104.482 7.55695C104.017 7.55695 103.626 7.78262 103.307 8.23398V15.1039L104.223 15.8805V16H98.8665V15.8805L99.8024 15.1039V7.65651L98.3089 8.39329L98.2293 8.29372L98.6474 7.69634C99.0855 7.0724 99.4373 6.60113 99.7028 6.28252C99.9683 5.95064 100.254 5.6785 100.559 5.46609C100.864 5.25369 101.183 5.14749 101.515 5.14749C101.993 5.14749 102.364 5.31343 102.63 5.64531C102.909 5.97719 103.048 6.54803 103.048 7.35782C103.048 7.62332 103.042 7.83573 103.028 7.99503H103.048C104.442 6.08339 105.444 5.12758 106.055 5.12758C107.104 5.12758 107.874 5.45282 108.365 6.10331C108.856 6.74052 109.102 7.57686 109.102 8.61233L109.062 15.1039ZM117.199 9.50841C117.823 9.93321 118.301 10.2916 118.633 10.5837C118.978 10.8625 119.264 11.1944 119.489 11.5793C119.715 11.9511 119.828 12.3891 119.828 12.8936C119.828 13.4246 119.695 13.949 119.43 14.4667C119.164 14.9712 118.713 15.396 118.076 15.7411C117.438 16.0863 116.609 16.2589 115.586 16.2589C115.215 16.2589 114.883 16.239 114.591 16.1991C114.312 16.1593 113.96 16.0929 113.535 16C113.429 15.9867 113.237 15.9535 112.958 15.9004C112.679 15.8473 112.407 15.8208 112.142 15.8208C111.942 15.8208 111.723 15.8407 111.484 15.8805L111.066 10.3248H111.186C111.703 11.3205 112.347 12.2232 113.117 13.033C113.887 13.8295 114.651 14.4534 115.407 14.9048C116.177 15.3562 116.821 15.5818 117.339 15.5818C117.525 15.5818 117.677 15.5354 117.797 15.4424C117.916 15.3362 117.976 15.1769 117.976 14.9645C117.976 14.7389 117.837 14.4933 117.558 14.2278C117.292 13.949 116.788 13.5706 116.044 13.0927L113.715 11.5395C112.971 11.0483 112.42 10.5638 112.062 10.0859C111.703 9.5947 111.524 9.0305 111.524 8.39329C111.524 7.39764 111.889 6.60113 112.619 6.00374C113.35 5.39308 114.299 5.08775 115.467 5.08775C116.529 5.08775 117.458 5.31343 118.255 5.76479L119.191 4.98819H119.31V10.1058H119.171C118.56 9.1367 117.93 8.32691 117.279 7.67642C116.629 7.01266 116.018 6.52148 115.447 6.20287C114.889 5.88427 114.425 5.72496 114.053 5.72496C113.615 5.72496 113.396 5.90418 113.396 6.26261C113.396 6.48829 113.496 6.71397 113.695 6.93965C113.907 7.15205 114.232 7.40428 114.67 7.69634L117.199 9.50841Z" fill="#262626"/>
<defs>
<clipPath id="clip0_979_3066">
<rect width="18.7469" height="18.7469" fill="white" transform="translate(0 0.214844)"/>
</clipPath>
</defs>
</svg>
