<svg width="33" height="32" viewBox="0 0 33 32" fill="none" xmlns="http://www.w3.org/2000/svg">
<g clip-path="url(#clip0_3064_231724)">
<path d="M16.7715 31.998C25.608 31.998 32.7715 24.8346 32.7715 15.998C32.7715 7.16149 25.608 -0.00195312 16.7715 -0.00195312C7.93493 -0.00195312 0.771484 7.16149 0.771484 15.998C0.771484 24.8346 7.93493 31.998 16.7715 31.998Z" fill="#6F41D8"/>
<path d="M21.8635 12.691C21.4945 12.476 21.0155 12.476 20.6095 12.691L17.7305 14.345L15.7755 15.423L12.8965 17.076C12.5275 17.292 12.0485 17.292 11.6425 17.076L9.35454 15.782C8.98554 15.567 8.72754 15.172 8.72754 14.74V12.188C8.72754 11.757 8.94854 11.362 9.35454 11.146L11.6045 9.88805C11.9745 9.67205 12.4545 9.67205 12.8605 9.88805L15.1105 11.146C15.4805 11.362 15.7385 11.757 15.7385 12.188V13.842L17.6935 12.727V11.074C17.6957 10.8594 17.6382 10.6483 17.5275 10.4643C17.4168 10.2803 17.2572 10.1307 17.0665 10.032L12.8965 7.66005C12.5275 7.44405 12.0485 7.44405 11.6425 7.66005L7.39854 10.032C7.20784 10.1307 7.04825 10.2803 6.93755 10.4643C6.82685 10.6483 6.76938 10.8594 6.77154 11.074V15.854C6.77154 16.286 6.99254 16.681 7.39854 16.897L11.6425 19.269C12.0115 19.484 12.4915 19.484 12.8965 19.269L15.7755 17.651L17.7305 16.537L20.6095 14.92C20.9785 14.704 21.4575 14.704 21.8635 14.92L24.1145 16.178C24.4845 16.393 24.7415 16.788 24.7415 17.22V19.772C24.7415 20.203 24.5215 20.598 24.1145 20.814L21.8645 22.108C21.4945 22.324 21.0145 22.324 20.6095 22.108L18.3585 20.85C17.9885 20.634 17.7305 20.239 17.7305 19.808V18.154L15.7755 19.269V20.922C15.7755 21.353 15.9965 21.749 16.4025 21.964L20.6465 24.336C21.0155 24.552 21.4945 24.552 21.9005 24.336L26.1445 21.964C26.5135 21.749 26.7715 21.354 26.7715 20.922V16.142C26.7737 15.9273 26.7162 15.7163 26.6055 15.5323C26.4948 15.3483 26.3352 15.1987 26.1445 15.1L21.8645 12.691H21.8635Z" fill="white"/>
</g>
<defs>
<clipPath id="clip0_3064_231724">
<rect width="32" height="32" fill="white" transform="translate(0.771484 -0.00195312)"/>
</clipPath>
</defs>
</svg>
