<svg width="64" height="65" viewBox="0 0 64 65" fill="none" xmlns="http://www.w3.org/2000/svg">
<path d="M43.1711 5.85352H20.8244C11.1177 5.85352 5.33105 11.6402 5.33105 21.3468V43.6668C5.33105 53.4002 11.1177 59.1868 20.8244 59.1868H43.1444C52.8511 59.1868 58.6377 53.4002 58.6377 43.6935V21.3468C58.6644 11.6402 52.8777 5.85352 43.1711 5.85352ZM23.0377 34.6802L34.7177 23.0002H28.2377C27.1444 23.0002 26.2377 22.0935 26.2377 21.0002C26.2377 19.9068 27.1444 19.0002 28.2377 19.0002H39.5444C39.8111 19.0002 40.0511 19.0535 40.3177 19.1602C40.7977 19.3735 41.1977 19.7468 41.4111 20.2535C41.5177 20.4935 41.5711 20.7602 41.5711 21.0268V32.3335C41.5711 33.4268 40.6644 34.3335 39.5711 34.3335C38.4777 34.3335 37.5711 33.4268 37.5711 32.3335V25.8535L25.8644 37.5068C25.4644 37.9068 24.9577 38.0935 24.4511 38.0935C23.9444 38.0935 23.4377 37.9068 23.0377 37.5068C22.2644 36.7335 22.2644 35.4535 23.0377 34.6802ZM48.6377 46.4402C43.2777 48.2268 37.6511 49.1335 31.9977 49.1335C26.3444 49.1335 20.7177 48.2268 15.3577 46.4402C14.3177 46.0935 13.7577 44.9468 14.1044 43.9068C14.4511 42.8668 15.5711 42.2802 16.6377 42.6535C26.5577 45.9602 37.4644 45.9602 47.3844 42.6535C48.4244 42.3068 49.5711 42.8668 49.9177 43.9068C50.2377 44.9735 49.6777 46.0935 48.6377 46.4402Z" fill="#0647F7"/>
</svg>
