<svg width="33" height="32" viewBox="0 0 33 32" fill="none" xmlns="http://www.w3.org/2000/svg">
<path d="M16.7715 31.998C25.608 31.998 32.7715 24.8346 32.7715 15.998C32.7715 7.16149 25.608 -0.00195312 16.7715 -0.00195312C7.93493 -0.00195312 0.771484 7.16149 0.771484 15.998C0.771484 24.8346 7.93493 31.998 16.7715 31.998Z" fill="#3E73C4"/>
<path d="M20.7931 18.1223C20.7931 15.9983 19.5131 15.2703 16.9531 14.9663C15.1251 14.7233 14.7601 14.2383 14.7601 13.3883C14.7601 12.5383 15.3701 11.9923 16.5881 11.9923C17.6851 11.9923 18.2951 12.3563 18.5991 13.2673C18.6307 13.3554 18.6886 13.4317 18.765 13.4858C18.8413 13.54 18.9324 13.5695 19.0261 13.5703H20.0011C20.0574 13.5718 20.1134 13.5618 20.1658 13.541C20.2181 13.5202 20.2657 13.489 20.3056 13.4493C20.3455 13.4096 20.377 13.3621 20.398 13.3099C20.4191 13.2576 20.4293 13.2016 20.4281 13.1453V13.0853C20.3089 12.4262 19.9754 11.8249 19.4794 11.3748C18.9834 10.9247 18.3526 10.651 17.6851 10.5963V9.1403C17.6851 8.8973 17.5021 8.7153 17.1981 8.6543H16.2831C16.0401 8.6543 15.8571 8.8363 15.7961 9.1403V10.5363C13.9671 10.7783 12.8101 11.9923 12.8101 13.5103C12.8101 15.5123 14.0281 16.3013 16.5881 16.6053C18.2951 16.9083 18.8431 17.2733 18.8431 18.2443C18.8431 19.2143 17.9901 19.8823 16.8321 19.8823C15.2471 19.8823 14.6991 19.2153 14.5161 18.3043C14.4561 18.0623 14.2721 17.9403 14.0891 17.9403H13.0531C12.9968 17.9389 12.9409 17.949 12.8887 17.9698C12.8364 17.9907 12.789 18.0219 12.7491 18.0617C12.7093 18.1014 12.678 18.1488 12.657 18.201C12.636 18.2532 12.6258 18.3091 12.6271 18.3653V18.4253C12.8701 19.9433 13.8461 21.0353 15.8571 21.3393V22.7963C15.8571 23.0383 16.0401 23.2213 16.3441 23.2813H17.2591C17.5021 23.2813 17.6851 23.0993 17.7461 22.7963V21.3383C19.5751 21.0353 20.7931 19.7603 20.7931 18.1213V18.1223Z" fill="white"/>
<path d="M13.6628 24.495C8.90879 22.795 6.47079 17.515 8.23879 12.842C9.15279 10.292 11.1638 8.35105 13.6628 7.44005C13.9068 7.31905 14.0278 7.13705 14.0278 6.83305V5.98305C14.0278 5.74105 13.9068 5.55905 13.6628 5.49805C13.6018 5.49805 13.4798 5.49805 13.4188 5.55805C12.0472 5.98637 10.7739 6.68178 9.67222 7.60422C8.57051 8.52666 7.66215 9.65793 6.99944 10.9329C6.33673 12.2078 5.93277 13.6013 5.8108 15.033C5.68884 16.4647 5.85129 17.9064 6.28879 19.275C7.38479 22.675 10.0058 25.285 13.4188 26.377C13.6628 26.498 13.9068 26.377 13.9668 26.134C14.0278 26.074 14.0278 26.012 14.0278 25.891V25.041C14.0278 24.859 13.8458 24.617 13.6628 24.495ZM20.1228 5.55905C19.8788 5.43705 19.6348 5.55905 19.5748 5.80105C19.5138 5.86205 19.5138 5.92305 19.5138 6.04405V6.89405C19.5138 7.13705 19.6958 7.37905 19.8788 7.50105C24.6328 9.20105 27.0708 14.481 25.3028 19.154C24.3888 21.704 22.3778 23.645 19.8788 24.556C19.6348 24.677 19.5138 24.859 19.5138 25.163V26.013C19.5138 26.255 19.6348 26.437 19.8788 26.498C19.9398 26.498 20.0618 26.498 20.1228 26.438C21.4944 26.0097 22.7677 25.3143 23.8694 24.3919C24.9711 23.4694 25.8794 22.3382 26.5421 21.0632C27.2049 19.7883 27.6088 18.3948 27.7308 16.9631C27.8527 15.5314 27.6903 14.0897 27.2528 12.721C26.1568 9.26105 23.4748 6.65105 20.1228 5.55905Z" fill="white"/>
</svg>
