<svg width="81" height="80" viewBox="0 0 81 80" fill="none" xmlns="http://www.w3.org/2000/svg">
<path d="M72.7361 35.7994L68.2027 30.5327C67.3361 29.5327 66.6361 27.666 66.6361 26.3327V20.666C66.6361 17.1327 63.7361 14.2327 60.2027 14.2327H54.5361C53.2361 14.2327 51.3361 13.5327 50.3361 12.666L45.0694 8.13271C42.7694 6.16605 39.0027 6.16605 36.6694 8.13271L31.4361 12.6994C30.4361 13.5327 28.5361 14.2327 27.2361 14.2327H21.4694C17.9361 14.2327 15.0361 17.1327 15.0361 20.666V26.366C15.0361 27.666 14.3361 29.5327 13.5027 30.5327L9.00273 35.8327C7.0694 38.1327 7.0694 41.866 9.00273 44.166L13.5027 49.466C14.3361 50.466 15.0361 52.3327 15.0361 53.6327V59.3327C15.0361 62.866 17.9361 65.7661 21.4694 65.7661H27.2361C28.5361 65.7661 30.4361 66.4661 31.4361 67.3327L36.7027 71.8661C39.0027 73.8327 42.7694 73.8327 45.1027 71.8661L50.3694 67.3327C51.3694 66.4661 53.2361 65.7661 54.5694 65.7661H60.2361C63.7694 65.7661 66.6694 62.866 66.6694 59.3327V53.666C66.6694 52.3661 67.3694 50.466 68.2361 49.466L72.7694 44.1994C74.7027 41.8994 74.7027 38.0994 72.7361 35.7994ZM54.7361 33.6994L38.6361 49.7994C38.1694 50.266 37.5361 50.5327 36.8694 50.5327C36.2027 50.5327 35.5694 50.266 35.1027 49.7994L27.0361 41.7327C26.0694 40.766 26.0694 39.166 27.0361 38.1994C28.0027 37.2327 29.6027 37.2327 30.5694 38.1994L36.8694 44.4994L51.2027 30.166C52.1694 29.1994 53.7694 29.1994 54.7361 30.166C55.7027 31.1327 55.7027 32.7327 54.7361 33.6994Z" fill="#0647F7"/>
</svg>
